<svg xmlns="http://www.w3.org/2000/svg" width="70" height="70" viewBox="0 0 70 70"><path fill="#ef9610" d="M62.2 58.84l-1.16-.46A34.84 34.84 0 0 0 70 35 34.94 34.94 0 0 0 57.67 8.33a1.1 1.1 0 1 0-1.44 1.68 33.15 33.15 0 0 1 5 5.32 48.1 48.1 0 0 1-8.28 2.3 39.46 39.46 0 0 0-3.18-7.15 25.36 25.36 0 0 0-5.73-7.01c3.28.94 6.42 2.4 9.3 4.34a1.1 1.1 0 1 0 1.23-1.83A34.83 34.83 0 0 0 35 0a34.77 34.77 0 0 0-24.75 10.25A34.77 34.77 0 0 0 0 35c0 8.69 3.18 16.96 8.97 23.4l-1.13.44a6.28 6.28 0 0 0-3.98 6.09v3.96c0 .61.5 1.11 1.1 1.11h16.28l.15-.01.16.01h4.5c.6 0 1.1-.5 1.1-1.11 0-.61-.5-1.1-1.1-1.1h-3.4v-3.85c0-4.06 3.2-5.23 3.32-5.28l.05-.01 5.39-2.11.03.04 2.86 2.78c.2.2.48.32.77.32h.02c.3-.01.57-.13.78-.34l2.74-2.85L44 58.64l.05.02c.14.05 3.33 1.22 3.33 5.28v3.85H29.5c-.61 0-1.1.49-1.1 1.1 0 .61.49 1.11 1.1 1.11h35.56c.6 0 1.1-.5 1.1-1.11v-3.96c0-4.5-3.53-5.93-3.97-6.09zm-3.35-1.34l-1.1-.44v-.62a5.8 5.8 0 0 0 2.58-3.19 3.13 3.13 0 0 0 1.72-5.54v-1.96a7.46 7.46 0 0 0-6.5-7.39c.04-.75.07-1.5.08-2.26h12.14c-.27 8-3.4 15.56-8.92 21.4zm-4-2.49h-1a3.55 3.55 0 0 1-3.54-3.54v-2.92c1.44-.16 3.99-.66 5.95-2.3a4.94 4.94 0 0 0 2.14 2.04v3.18a3.55 3.55 0 0 1-3.54 3.54zm.7 2.17v.61l-1.23 1.28-1.16-1.13v-.76c.22.03.46.04.69.04h1c.24 0 .47-.01.7-.04zM49.2 46.41h-.12l-.04.01-.07.01-.05.01-.06.02-.03.01v-.72a5.24 5.24 0 0 1 5.24-5.24h.52a5.24 5.24 0 0 1 5.24 5.24v.71l-.06-.01-.03-.01c-1.54-.35-2.05-2.41-2.05-2.43-.1-.42-.43-.75-.86-.84-.42-.08-.86.09-1.11.44-2 2.77-6.47 2.8-6.52 2.8zm11.4 4.47v-1.49a.9.9 0 0 1 0 1.49zm1.92-33.69a32.74 32.74 0 0 1 5.24 16.7H55.63a55.8 55.8 0 0 0-2.02-14.14c3.4-.68 6.43-1.54 8.92-2.56zm-9.1 16.7H42.1a9.08 9.08 0 0 0-6-2.95v-9.5c5.42-.06 10.65-.51 15.32-1.29a53.4 53.4 0 0 1 2 13.74zm-9.76 11.55c0 .65-.44 1.19-1.03 1.36v-2.73c.6.17 1.03.72 1.03 1.37zm4.19-33.86a36.89 36.89 0 0 1 2.9 6.45c-4.46.72-9.46 1.14-14.65 1.2V2.27c4.4.47 8.53 3.73 11.75 9.31zm-5.63 28.37v1.35l-.02-.02a2.1 2.1 0 0 0-.09-.06l-.05-.03-.05-.02-.05-.03-.05-.02-.05-.01a.18.18 0 0 0-.06-.02l-.03-.01c-2.1-.48-2.77-3.22-2.77-3.24-.1-.42-.44-.75-.86-.84-.43-.09-.86.08-1.12.44-2.59 3.57-8.3 3.61-8.38 3.61l-.12.01h-.03l-.08.01-.04.01-.06.02-.05.02-.05.02-.06.03-.04.01-.06.04-.03.02a.18.18 0 0 0-.05.04l-.04.02-.03.03v-1.38a6.84 6.84 0 0 1 6.83-6.83h.66a6.84 6.84 0 0 1 6.83 6.83zm-23.66-19.8c4.67.78 9.91 1.23 15.33 1.29v9.51a9.02 9.02 0 0 0-5.86 2.95l-.13-.01H16.58c.09-4.85.77-9.52 2-13.74zm8.97 23.91v2.75a1.42 1.42 0 0 1 0-2.75zM33.9 2.27v16.96a99.11 99.11 0 0 1-14.64-1.21 37.2 37.2 0 0 1 2.9-6.44C25.34 6 29.5 2.74 33.88 2.27zm-7.94 1.21a25.31 25.31 0 0 0-5.72 7 39.45 39.45 0 0 0-3.18 7.15 47.9 47.9 0 0 1-8.27-2.3A32.87 32.87 0 0 1 25.95 3.48zM7.48 17.2a50.57 50.57 0 0 0 8.91 2.55 55.75 55.75 0 0 0-2.02 14.14H2.23c.2-6.14 2.1-11.85 5.25-16.69zm7.12 39.98c.23.03.46.04.69.04h1c.24 0 .47-.01.7-.04v.61l-1.23 1.28-1.16-1.13zm1.7-2.17h-1.01a3.55 3.55 0 0 1-3.54-3.54v-2.92c1.44-.16 3.99-.66 5.95-2.3a5.02 5.02 0 0 0 2.14 2.05v3.17a3.55 3.55 0 0 1-3.54 3.54zm2.84-11c-.1-.42-.43-.75-.86-.84-.42-.08-.86.09-1.11.44-2 2.77-6.47 2.8-6.52 2.8h-.12l-.03.01-.08.01-.05.01-.05.02-.04.01v-.72a5.24 5.24 0 0 1 5.24-5.24h.53a5.24 5.24 0 0 1 5.23 5.24v.71a.16.16 0 0 1-.06-.02h-.03c-1.54-.35-2.04-2.41-2.05-2.43zM2.24 36.1h12.13c.01.77.04 1.53.08 2.28a7.46 7.46 0 0 0-6.38 7.37v1.96a3.12 3.12 0 0 0 1.75 5.54 5.8 5.8 0 0 0 2.57 3.19v.62l-1.2.47A32.61 32.61 0 0 1 2.22 36.1zm7.3 13.27v1.54a.93.93 0 0 1-.42-.77.9.9 0 0 1 .42-.77zm10.9 14.57v3.85H6.07v-2.86c0-3.08 2.41-3.97 2.5-4.01l.06-.01 4.16-1.64 2.22 2.16c.2.2.48.31.77.31h.02c.3 0 .57-.12.78-.33l2.09-2.18 2.58 1.04c-.49 1-.8 2.22-.8 3.67zm10.67-9.66l-5.87 2.3c-.75.26-1.78.85-2.7 1.83l-3.34-1.35v-.62a5.79 5.79 0 0 0 2.57-3.19 3.13 3.13 0 0 0 1.72-5.54v-1.96c0-3.9-3-7.1-6.83-7.42-.04-.74-.07-1.48-.08-2.23h9.99a9.02 9.02 0 0 0-.86 3.85v2.58a3.63 3.63 0 0 0 2.12 6.54 6.93 6.93 0 0 0 3.28 4.08v1.13zm-9.06-3.4v-1.49a.9.9 0 0 1 0 1.49zm14.8 4.24L35.06 57l-1.73-1.68v-1.39c.37.06.75.09 1.14.09h1.26c.39 0 .77-.03 1.14-.09zm-1.13-3.31h-1.26a4.7 4.7 0 0 1-4.7-4.7V43.2c1.76-.16 5.24-.77 7.8-3.06a6 6 0 0 0 2.87 2.81v4.16a4.7 4.7 0 0 1-4.71 4.7zm11.77 6.6a7.06 7.06 0 0 0-2.7-1.83l-5.72-2.29v-1.14a6.92 6.92 0 0 0 3.28-4.09 3.63 3.63 0 0 0 2.1-6.52v-2.59c0-1.37-.32-2.68-.87-3.85h9.84c-.01.75-.04 1.5-.09 2.24a7.45 7.45 0 0 0-6.7 7.41v1.96a3.11 3.11 0 0 0 1.75 5.54 5.8 5.8 0 0 0 2.57 3.19v.62zm.6-9.04v1.54a.93.93 0 0 1-.41-.77.9.9 0 0 1 .42-.77zm1.49 18.42v-3.85c0-1.44-.32-2.66-.8-3.66l2.58-1.01 2.21 2.16c.2.2.48.31.77.31h.02c.3 0 .57-.12.78-.33l2.09-2.18 4.16 1.67.05.02c.1.04 2.51.93 2.51 4.01v2.86z"/></svg>