<svg xmlns="http://www.w3.org/2000/svg" width="70" height="64" viewBox="0 0 70 64"><path fill="#ef9610" d="M68.88 48.15h-.93l-2.04-7.49a1.12 1.12 0 0 0-1.08-.83h-.92l-.6-3.29a1.1 1.1 0 0 0-.48-.73c-2.68-7.46-2.63-12.53-2.46-14.47h1.44a2.57 2.57 0 0 0 2.57-2.56v-1.4a2.57 2.57 0 0 0-2.57-2.56h-.1A8.16 8.16 0 0 0 55.4 3.4V1.11a1.11 1.11 0 0 0-2.23 0V3.4a8.16 8.16 0 0 0-6.31 11.42h-.1a2.57 2.57 0 0 0-2.58 2.56v1.4a2.57 2.57 0 0 0 2.58 2.56h1.44c.18 1.93.24 6.96-2.46 14.47a1.1 1.1 0 0 0-.49.73l-.59 3.29h-.92c-.5 0-.95.34-1.08.83l-.25.93c-1.5-5.48-1.45-9.23-1.3-10.83h1.43a2.57 2.57 0 0 0 2.57-2.57V26.8a2.57 2.57 0 0 0-2.57-2.57h-.1a8.15 8.15 0 0 0-6.32-11.41v-2.29a1.1 1.1 0 0 0-2.23 0v2.29a8.15 8.15 0 0 0-6.31 11.41h-.1a2.57 2.57 0 0 0-2.57 2.57v1.39a2.57 2.57 0 0 0 2.57 2.57h1.44c.14 1.6.2 5.35-1.3 10.83l-.26-.93a1.12 1.12 0 0 0-1.08-.83h-.92l-.59-3.29a1.1 1.1 0 0 0-.49-.73c-2.68-7.46-2.62-12.53-2.46-14.47h1.44a2.57 2.57 0 0 0 2.58-2.56v-1.4a2.57 2.57 0 0 0-2.58-2.56h-.1A8.16 8.16 0 0 0 16.84 3.4V1.11a1.11 1.11 0 0 0-2.22 0V3.4a8.16 8.16 0 0 0-6.32 11.42h-.1a2.57 2.57 0 0 0-2.57 2.56v1.4a2.57 2.57 0 0 0 2.57 2.56h1.44c.18 1.93.24 6.96-2.46 14.47a1.1 1.1 0 0 0-.49.73l-.59 3.29h-.92c-.5 0-.95.34-1.08.83l-2.04 7.49h-.94c-.61 0-1.11.5-1.11 1.11v4.21c0 .62.5 1.11 1.11 1.11h21.03l-.8 2.99h-.95c-.61 0-1.11.5-1.11 1.11v4.21c0 .61.5 1.11 1.11 1.11H49.6c.62 0 1.12-.5 1.12-1.11v-4.21c0-.61-.5-1.11-1.12-1.11h-.93l-.81-2.99h21.02A1.1 1.1 0 0 0 70 53.47v-4.21c0-.61-.5-1.11-1.12-1.11zM46.4 18.78v-1.4c0-.19.16-.34.35-.34h9.51a1.1 1.1 0 1 0 0-2.22H49.4a5.93 5.93 0 1 1 9.47.4 1.12 1.12 0 0 0 .86 1.82h2.1c.18 0 .33.15.33.34v1.4c0 .19-.15.34-.34.34H46.75a.34.34 0 0 1-.35-.34zm4.03 2.56h7.7c-.18 2.24-.14 7.17 2.28 14.29H48.15c2.42-7.12 2.46-12.05 2.28-14.29zm-3.16 16.51H61.3l.35 1.98H46.92zm-3.56 7.41l.87-3.2h19.4l1.66 6.09h-21.2l-.4-2.19a1.11 1.11 0 0 0-.35-.63l.02-.07zM27.12 28.19V26.8c0-.19.16-.34.35-.34h9.51a1.12 1.12 0 0 0 0-2.23h-6.87A5.9 5.9 0 0 1 35 14.96a5.94 5.94 0 0 1 4.58 9.68 1.11 1.11 0 0 0 .86 1.82h2.1c.18 0 .34.15.34.34v1.39c0 .19-.16.34-.35.34H27.47a.34.34 0 0 1-.35-.34zm4.03 2.57h7.7c-.18 2.23-.14 7.16 2.28 14.28H28.87c2.42-7.12 2.46-12.05 2.28-14.28zm-3.16 16.5h14.02l.35 1.99H27.64zm15.7 4.21h1.01l1.66 6.1H23.64l1.66-6.1zM7.85 18.78v-1.4c0-.19.15-.34.34-.34h9.51a1.1 1.1 0 1 0 0-2.22h-6.86a5.93 5.93 0 1 1 9.46.4 1.12 1.12 0 0 0 .86 1.82h2.1c.18 0 .33.15.33.34v1.4c0 .19-.15.34-.34.34H8.2a.34.34 0 0 1-.35-.34zm4.02 2.56h7.7c-.18 2.24-.14 7.17 2.28 14.29H9.59c2.42-7.12 2.46-12.05 2.28-14.29zM8.7 37.85h14.02l.35 1.98H8.36zm-2.7 4.21h19.41l.88 3.22.01.05c-.18.16-.3.38-.35.63l-.4 2.19H4.37zm-3.78 10.3v-1.99h21.06l-.54 1.99zm46.26 7.43v1.99H21.51v-1.99h26.3zm-1.24-7.43l-.54-1.99h21.06v1.99z"/></svg>