<svg xmlns="http://www.w3.org/2000/svg" width="70" height="70" viewBox="0 0 70 70"><path fill="#ef9610" d="M70 68.81v-5.29a8.1 8.1 0 0 0-5.06-7.79l-3.68-1.54-2.48-1.63v-.61a7.34 7.34 0 0 0 3.68-5.1 3.57 3.57 0 0 0 2.01-5.9v-3.49a9.54 9.54 0 0 0-9.52-9.54h-.7a9.54 9.54 0 0 0-9.53 9.54v3.5a3.57 3.57 0 0 0 2.03 5.89 7.35 7.35 0 0 0 3.68 5.1v.54l-2.48 1.64a.38.38 0 0 0-.1.04l-3.74 1.56a8.1 8.1 0 0 0-5.06 7.79v5.3c0 .61.5 1.11 1.1 1.11h7.25a1.1 1.1 0 0 0 0-2.22h-1.07v-4.43a1.1 1.1 0 1 0-2.2 0v4.43h-2.88v-4.19a5.84 5.84 0 0 1 3.67-5.74l2.67-1.11 3.1 11.07a1.1 1.1 0 0 0 .24 2.18h1.2v0h4.96v0h11.8c.61 0 1.1-.5 1.1-1.11zM46.62 44.47a1.37 1.37 0 0 1 0-2.26zm15.97-2.26a1.37 1.37 0 0 1 0 2.26zm-5.52 19.62l.24-.62.29.21c.11.08.24.14.37.18l-.6 2.11zm-3.64 5.88l.79-4.89H55l.78 4.89zm-.79-14.98c.42.07.85.11 1.3.11h1.34c.44 0 .87-.04 1.3-.11v1.4l-2.02 2.09-1.92-1.88zm1.92 6.45l.9.66-.29.77h-1.16l-.33-.78zm-3.31 2.38c.1-.03.18-.08.26-.14l.34-.25.29.68-.3 1.83zm-.77-6.45c.05.18.14.35.29.48l2.12 2.07-1.62 1.2-1.57-3.24zm8.23-19.47a1.1 1.1 0 1 0-1.97-.41c-2.78 3.86-8.92 3.9-9 3.9h-.12l-.04.01-.07.01-.05.01-.06.02a.11.11 0 0 0-.05.02l-.05.01a3.1 3.1 0 0 0-.06.03l-.04.02-.05.03-.04.03-.05.03-.03.03-.05.04-.03.03-.02.02v-2.01a7.33 7.33 0 0 1 7.32-7.33h.7a7.33 7.33 0 0 1 7.32 7.33v2l-.03-.03-.04-.04-.04-.03-.05-.03-.04-.03a2.1 2.1 0 0 0-.05-.03l-.05-.03-.04-.02-.06-.02-.04-.02-.07-.02h-.03c-2.29-.53-3.01-3.5-3.02-3.52zm-3.43 14.99h-1.35a5.1 5.1 0 0 1-5.1-5.1v-4.25c1.87-.16 5.68-.81 8.43-3.32a6.36 6.36 0 0 0 3.12 3.07v4.5a5.1 5.1 0 0 1-5.1 5.1zm4.13 4.99l-1.57 3.24-.38-.28-1.23-.91 2.24-2.33c.07-.07.12-.15.17-.23zm8.38 12.09h-2.87v-4.43a1.1 1.1 0 1 0-2.2 0v4.43h-4.17l3.07-10.97 2.5 1.04.07.03c.15.05 3.6 1.31 3.6 5.71zM53.16 19.82V5.04c0-.61-.5-1.11-1.1-1.11h-9.17V1.11c0-.62-.5-1.11-1.1-1.11H17.83c-.6 0-1.1.49-1.1 1.11v14.77c0 .61.5 1.11 1.1 1.11h4.98v5.14a1.1 1.1 0 0 0 1.1 1.1c.32 0 .62-.13.84-.38l2.31-2.68c.15.44.56.75 1.04.75h11.96l5.07 5.86a1.1 1.1 0 0 0 1.22.32c.43-.16.72-.58.72-1.04v-5.14h4.98c.6 0 1.1-.49 1.1-1.1zm-2.2-1.11h-4.98c-.61 0-1.1.5-1.1 1.11v3.28l-3.47-4.01a1.11 1.11 0 0 0-.84-.38H29.22V6.14h5.87c.61 0 1.1-.49 1.1-1.1 0-.61-.49-1.11-1.1-1.11h-6.98c-.6 0-1.1.5-1.1 1.11v11.83l-1.99 2.29v-3.28c0-.61-.49-1.1-1.1-1.1h-4.97V2.21h21.73v1.72h-1.91c-.61 0-1.1.5-1.1 1.11 0 .61.49 1.1 1.1 1.1h12.18zm-35.4 8.66c-7.21 0-13.09 6.87-13.09 15.31 0 3.89 1.25 7.6 3.52 10.44l.02.03.03.03.08.08.03.02a1.03 1.03 0 0 0 .53.24l.02.01.15.01h.02l.13-.01.06-.01.14-.04.05-.02.06-.02a16.9 16.9 0 0 1 4.07-1.17v1.34l-2.41.58a.97.97 0 0 0-.17.05L5.06 55.8A8.1 8.1 0 0 0 0 63.6v5.29C0 69.5.5 70 1.1 70H29.84c.62 0 1.11-.51 1.11-1.12V63.6a8.1 8.1 0 0 0-5.06-7.8l-3.74-1.56a.85.85 0 0 0-.15-.05l-2.27-.57v-1.35c1.55.25 2.96.66 4.1 1.17a1.1 1.1 0 0 0 1.37-.4l.07-.09a16.79 16.79 0 0 0 3.38-10.27c0-8.44-5.87-15.31-13.09-15.31zm3.94 40.42l3.07-10.98 2.5 1.05.07.02c.15.05 3.6 1.32 3.6 5.72v4.19h-2.86v-4.43a1.1 1.1 0 1 0-2.21 0v4.43zm-7.88-8.23a11.38 11.38 0 0 0 7.9-.01l-2.31 8.24h-3.29zm0 8.23H7.29v-4.43a1.1 1.1 0 1 0-2.2 0v4.43H2.2V63.6c0-4.4 3.45-5.67 3.6-5.72l.07-.02 2.66-1.11.29 1.02v.01zm1.13-12.24c.5-.12.84-.56.84-1.07V52.8c.42.08.86.12 1.3.12h1.35c.44 0 .87-.04 1.28-.11v1.67c0 .51.35.95.84 1.07l2.12.54-.19.67a9.42 9.42 0 0 1-9.45.02l-.2-.72zM9.79 41.13a18.2 18.2 0 0 0 5.7-3.13c1 .96 2.88 2.4 5.85 3.19v4.41a5.11 5.11 0 0 1-5.1 5.11h-1.35a5.11 5.11 0 0 1-5.1-5.11zm16.66 1.55c0 3.09-.9 6.05-2.55 8.41-.67-.26-1.4-.48-2.17-.67a7.3 7.3 0 0 0 1.7-3.49 3.57 3.57 0 0 0 .04-7.03 1.1 1.1 0 0 0-.8-.67c-4.3-.88-6.14-3.34-6.2-3.44a1.1 1.1 0 0 0-1.7-.13c-2.46 2.54-6.32 3.57-6.36 3.58a1.1 1.1 0 0 0-.75.66 3.57 3.57 0 0 0 .04 7.03 7.3 7.3 0 0 0 1.7 3.49c-.78.19-1.5.41-2.17.66a14.66 14.66 0 0 1-2.55-8.4c0-7.22 4.88-13.1 10.88-13.1 6 0 10.89 5.88 10.89 13.1zm-19.47.73c0-.46.24-.88.6-1.13v2.27c-.36-.25-.6-.67-.6-1.14zm17.16 0c0 .47-.23.89-.6 1.14v-2.27c.37.25.6.67.6 1.13z"/></svg>