<svg xmlns="http://www.w3.org/2000/svg" width="66" height="70" viewBox="0 0 66 70"><path fill="#ef9610" d="M65.2 62.42a1.18 1.18 0 0 1-1.62.42 1.17 1.17 0 0 1-.42-1.6 3.4 3.4 0 0 0 .48-1.72V10.5c0-4.5-3.7-8.17-8.25-8.17H10.61a8.22 8.22 0 0 0-8.25 8.16c0 2.9 1.58 5.61 4.12 7.06a1.17 1.17 0 1 1-1.18 2.02A10.51 10.51 0 0 1 0 10.52v-.06A10.57 10.57 0 0 1 10.6 0h44.8C61.23 0 66 4.71 66 10.5v49.02c0 1.01-.28 2.01-.8 2.9zM5.9 11.64c-.66 0-1.19-.52-1.19-1.16a5.87 5.87 0 0 1 5.9-5.84c.65 0 1.18.52 1.18 1.17V59.5c0 1.93 1.58 3.5 3.53 3.5h22.4c.65 0 1.17.52 1.17 1.16 0 .65-.52 1.17-1.18 1.17H15.32a5.87 5.87 0 0 1-5.9-5.83V7.17a3.52 3.52 0 0 0-2.35 3.31c0 .64-.53 1.16-1.18 1.16zM37.7 38.49c0-.65.53-1.17 1.18-1.17h11.79a1.17 1.17 0 1 1 0 2.34H38.89c-.65 0-1.18-.53-1.18-1.17zm6.37 21.36a1.18 1.18 0 0 1 1.6-.42c.57.32.76 1.03.44 1.59l-2.58 4.43.73.04c.37.02.7.21.9.52l.41.6 2.54-4.35a1.19 1.19 0 0 1 1.61-.43c.56.32.76 1.04.43 1.6l-3.49 5.98c-.2.36-.58.58-.98.59h-.04c-.4 0-.77-.2-.98-.53l-1.13-1.69-2.04-.12a1.16 1.16 0 0 1-.95-1.75zm12.5-28.37c0 .65-.53 1.17-1.19 1.17h-7.07c-.65 0-1.18-.52-1.18-1.17 0-.64.53-1.16 1.18-1.16h7.07c.66 0 1.18.52 1.18 1.16zm-11.8 0c0 .65-.52 1.17-1.17 1.17H31.82c-.65 0-1.18-.52-1.18-1.17 0-.64.53-1.16 1.18-1.16h11.79c.65 0 1.18.52 1.18 1.16zM29.47 16.31h9.43c.65 0 1.18.53 1.18 1.17 0 .64-.53 1.17-1.18 1.17h-9.43c-.65 0-1.17-.53-1.17-1.17 0-.64.52-1.17 1.17-1.17zm-9.42 2.34c-.66 0-1.18-.53-1.18-1.17 0-.64.52-1.17 1.18-1.17h4.71c.65 0 1.18.53 1.18 1.17 0 .64-.53 1.17-1.18 1.17zm17.67 5.83c0 .65-.52 1.17-1.17 1.17h-16.5a1.17 1.17 0 1 1 0-2.34h16.5c.65 0 1.17.53 1.17 1.17zm-17.67 8.17c-.66 0-1.18-.52-1.18-1.17 0-.64.52-1.16 1.18-1.16h7.07c.65 0 1.18.52 1.18 1.16 0 .65-.53 1.17-1.18 1.17zm15.32 5.84c0 .64-.53 1.17-1.18 1.17H20.04a1.17 1.17 0 0 1 0-2.34h14.14c.65 0 1.18.52 1.18 1.17zM21.74 54.7c-.58.29-1.29.06-1.58-.52-1.56-3.08-1.78-5.93-.6-7.82a4.52 4.52 0 0 1 4.01-2.04c1.55 0 2.4.75 2.84 1.39 1.01 1.44.9 3.76.51 5.77.99-.59 1.4-.42 1.7-.29.47.19.77.61.83 1.12a4.55 4.55 0 0 1 2.37-.98c.61 0 1.14.27 1.44.75.28.46.3 1.02.2 1.58h3.08c.65 0 1.17.52 1.17 1.17 0 .64-.52 1.16-1.17 1.16h-4.72c-.4 0-.78-.21-1-.55a1.15 1.15 0 0 1-.05-1.13c0-.03.02-.06.04-.09-.53.38-1.15.9-1.7 1.43-.33.34-.83.44-1.28.25-.44-.18-.72-.6-.72-1.07v-.57c-.48.4-1.02.89-1.53 1.39-.39.39-1 .45-1.47.16-.46-.3-.66-.88-.46-1.39.87-2.31 1.7-6.13.83-7.38-.14-.19-.35-.38-.9-.38-.95 0-1.63.31-2.01.93-.73 1.16-.47 3.24.7 5.55.29.57.05 1.28-.53 1.56zm21.87-36.05c-.65 0-1.18-.53-1.18-1.17 0-.64.53-1.17 1.18-1.17h2.35c.66 0 1.18.53 1.18 1.17 0 .64-.52 1.17-1.18 1.17zm10.6 5.83c0 .65-.52 1.17-1.17 1.17H41.25a1.17 1.17 0 1 1 0-2.34h11.79c.65 0 1.17.53 1.17 1.17zM44.8 53.66c0-3.86 3.17-7 7.07-7 3.9 0 7.07 3.14 7.07 7s-3.17 7-7.07 7a7.04 7.04 0 0 1-7.07-7zm7.07 4.67a4.7 4.7 0 0 0 4.71-4.67 4.7 4.7 0 0 0-4.71-4.67 4.7 4.7 0 0 0-4.72 4.67 4.7 4.7 0 0 0 4.72 4.67zm1.7 5.12l3.48 5.97c.21.35.58.57.99.58h.04c.4 0 .76-.2.98-.53l1.13-1.68 2.04-.13a1.17 1.17 0 0 0 .95-1.75l-3.5-6a1.19 1.19 0 0 0-1.61-.43 1.17 1.17 0 0 0-.43 1.6l2.54 4.37-.72.04c-.37.02-.71.22-.92.52l-.4.6-2.52-4.33a1.19 1.19 0 0 0-1.61-.43 1.17 1.17 0 0 0-.43 1.6z"/></svg>