<svg xmlns="http://www.w3.org/2000/svg" width="72" height="62" viewBox="0 0 72 62"><path fill="#ef9610" d="M70.96 48.52a1.12 1.12 0 0 0-.51-.68l-7.68-4.5a1.1 1.1 0 0 0-1.51.42l-.21.36-2.32-1.36c-.7-3.07-5.51-5.9-6.56-6.49l-4.14-2.42a2.76 2.76 0 0 0-3.8 1.03l-.02.06c-.1.16-.18.34-.23.51l-1.11-.64c-.46-.27-.98-.4-1.5-.38a2.8 2.8 0 0 0 1.67-2.58v-5.54c.57.53 1.24.97 1.99 1.14.21.04.42.07.63.07a3.13 3.13 0 0 0 2-.77c.1-.08 2.11-1.9-.5-5.52A6.17 6.17 0 0 1 46 18.28c-.28-1.55-.56-3.15-3.42-5.47v-1.58h.2c.62 0 1.11-.5 1.11-1.12V4.74c0-.62-.5-1.12-1.1-1.12-.62 0-1.11.5-1.11 1.12v4.25H30.2V2.25H42.8c.6 0 1.1-.51 1.1-1.13C43.9.5 43.4 0 42.8 0h-13.7c-.6 0-1.1.5-1.1 1.12v8.99c0 .62.5 1.12 1.1 1.12h.43v2.72c-2.28 2.14-2.3 7.79-2.27 9.01v4.84a2.8 2.8 0 0 0 2.78 2.82h.06c.2 0 .38-.02.56-.06v1.29c0 .53.15 1.02.4 1.45a2.74 2.74 0 0 0-2.83-.04l-.05.04-4.68 2.73c.17-.76.21-1.57-.02-2.31a3.05 3.05 0 0 0-1.9-1.95l-.02-.01c-.1-.04-2.67-.91-4.46 3.19-.58 1.33-1.2 1.87-1.94 2.5-1.18 1.02-2.4 2.07-2.96 5.74l-1.34.79-.1-.18a1.1 1.1 0 0 0-1.52-.41l-4.59 2.68c-.53.31-.7 1-.4 1.54.3.53.98.72 1.51.41l3.63-2.13 5.73 10.08-5.75 3.37-6.3-11.05a1.1 1.1 0 0 0-1.5-.41c-.54.31-.72 1-.41 1.53l6.84 12.03a1.1 1.1 0 0 0 1.52.41l7.67-4.5c.53-.31.71-.99.4-1.53l-.2-.37 2.32-1.36c2.96.93 7.8-1.88 8.82-2.51l4.14-2.43a2.83 2.83 0 0 0 1.02-3.84l-.04-.06c-.1-.16-.2-.32-.33-.46l1.11-.64c.36-.21.65-.49.87-.81a2.8 2.8 0 0 0 1.38 2.35l.06.03v.01l4.68 2.73c-.74.24-1.45.61-1.96 1.18a3.11 3.11 0 0 0-.73 2.64v.03c.02.1.48 2.37 3.96 2.37.31 0 .64-.02 1-.06a6 6 0 0 1 3.1.46c1.47.53 2.98 1.08 6.4-.27l1.34.78-.1.19c-.31.53-.13 1.22.4 1.53L59.4 60c.53.31 1.21.12 1.52-.41.3-.54.12-1.23-.4-1.54l-3.64-2.12 5.53-9.71.21-.37 5.76 3.37-6.3 11.05c-.3.54-.12 1.23.41 1.54.18.1.37.15.56.15.38 0 .75-.21.96-.56l6.84-12.03c.15-.26.19-.56.11-.85zM30.65 23.69v4.11c0 .32-.25.57-.56.57h-.06a.56.56 0 0 1-.56-.57v-4.85-.03c-.05-2.55.46-6.69 1.72-7.45.34-.2.54-.57.54-.97v-3.27h8.63v2.13c0 .35.17.68.44.89 2.58 1.99 2.78 3.07 3.02 4.43.19 1.02.42 2.29 1.56 3.88 1.02 1.42.99 2.24.81 2.5-.3.23-.52.23-.7.19-.99-.22-2.16-1.99-2.57-2.81a1.1 1.1 0 0 0-1.48-.5c-.41.21-.64.64-.61 1.08v8.83c0 .32-.25.57-.56.57h-.07a.56.56 0 0 1-.56-.57v-.03V23.69c0-.62-.5-1.12-1.1-1.12-.62 0-1.11.5-1.11 1.12V33.5c0 .31-.25.57-.56.57h-.07a.57.57 0 0 1-.55-.57v-1.36l.01-.29v-2.09l-.01-.17v-5.9c0-.62-.5-1.12-1.11-1.12-.61 0-1.1.5-1.1 1.12v8.29a.56.56 0 0 1-.55.44h-.07a.56.56 0 0 1-.55-.57v-8.16c0-.62-.5-1.12-1.11-1.12-.61 0-1.11.5-1.11 1.12zm2.92 18.17a.56.56 0 0 1-.26.34l-3 1.76-.46.26v.01l-3.5 2.05c-.54.31-.72 1-.41 1.54a1.1 1.1 0 0 0 1.51.41l3.52-2.06c.26-.15.6-.06.75.21l.04.06c.15.27.06.61-.2.77l-4.16 2.43-.02.01c-1.7 1.04-4.4 2.27-6.1 2.39l-.04-.02-.02-.02-.04-.01a.89.89 0 0 0-.66.01 1.3 1.3 0 0 1-.36-.14 1.1 1.1 0 0 0-1.1.01l-2.79 1.64-4.32-7.58 1.82-1.06c.3-.18.5-.49.54-.84.4-3.26 1.23-3.97 2.27-4.87.78-.67 1.75-1.5 2.54-3.3.7-1.61 1.42-1.99 1.73-1.97.35.16.45.35.5.52.32.98-.6 2.89-1.1 3.66-.34.52-.2 1.22.31 1.56.39.26.87.24 1.23-.01l.04-.02 3.35-1.96 4.15-2.43c.27-.16.61-.06.76.21l.04.06c.1.17.08.34.05.42a.58.58 0 0 1-.26.35l-.03.02-.03.01-6.9 4.05c-.54.31-.72.99-.41 1.53a1.1 1.1 0 0 0 1.51.41l6.91-4.04.03-.02.03-.02 1.4-.82c.27-.16.62-.06.77.2l.03.06c.1.18.08.35.06.43a.58.58 0 0 1-.26.35l-1.16.67-.26.14-1.78 1.04-.14.1-5.04 2.95c-.53.31-.7 1-.4 1.53a1.1 1.1 0 0 0 1.51.42l5.59-3.27.14-.1.16-.08 1.19-.7a.52.52 0 0 1 .3 0c.09.02.24.08.34.26l.04.06c.1.18.07.34.05.43zM36 37.98l-.04.06a2.86 2.86 0 0 0 .22 3.14c-.14.13-.26.27-.37.43a2.88 2.88 0 0 0-.36-1.31l-.04-.05a2.6 2.6 0 0 0-.46-.6 2.85 2.85 0 0 0 .21-3.14l-.03-.06a2.77 2.77 0 0 0-2.78-1.38 2.9 2.9 0 0 0-.3-.72l-.03-.06-.02-.03c.42.25.9.41 1.43.41h.07c.26 0 .5-.04.75-.11a2.77 2.77 0 0 0 2.56 1.75h.07c1.16 0 2.16-.72 2.57-1.75.24.07.5.11.76.11h.07l.13-.01c-.55.24-1.01.64-1.32 1.18l-.03.06c-.13.22-.22.46-.28.7a2.77 2.77 0 0 0-2.78 1.38zm19.8 15.36l-.91-.53a.87.87 0 0 0-.78-.06l-.29-.16a1.1 1.1 0 0 0-.98-.07c-1.74.75-2.82.93-3.66.86l-.48-.16-.06-.02-.24-.09-.03-.01-.26-.09-.02-.01c-.43-.14-.9-.27-1.47-.35-.8-.23-1.8-.41-3.16-.26-1.74.19-2.42-.25-2.55-.54-.04-.38.07-.57.19-.7.68-.77 2.78-.91 3.68-.86.61.04 1.14-.44 1.17-1.05a1.13 1.13 0 0 0-.66-1.1l-3.35-1.97-4.15-2.43a.57.57 0 0 1-.2-.77l.03-.06c.1-.17.26-.24.34-.26a.53.53 0 0 1 .42.06l.04.01.02.02 6.91 4.05a1.1 1.1 0 0 0 1.51-.41c.31-.54.13-1.23-.4-1.54l-6.9-4.04-.04-.02-.03-.02-1.4-.82a.57.57 0 0 1-.21-.77l.03-.06c.1-.18.26-.24.34-.27a.57.57 0 0 1 .42.06l1.17.68.23.16 1.8 1.04.15.08 5.03 2.94a1.1 1.1 0 0 0 1.51-.41c.3-.53.13-1.22-.4-1.53l-5.59-3.27-.15-.08-.15-.1-1.19-.7a.58.58 0 0 1-.16-.26.57.57 0 0 1 .06-.43l.03-.06c.1-.18.26-.24.34-.26a.51.51 0 0 1 .42.05l3.46 2.03 3.51 2.05c.18.11.37.16.55.16a1.13 1.13 0 0 0 .56-2.1l-3.51-2.06a.56.56 0 0 1-.2-.77l.03-.06c.15-.27.5-.36.76-.2l4.15 2.43.02.01c2.2 1.23 5.49 3.74 5.5 5.23 0 .4.22.76.56.96l2.79 1.64z"/></svg>