<svg xmlns="http://www.w3.org/2000/svg" width="70" height="65" viewBox="0 0 70 65"><path fill="#ef9610" d="M70 63.89v-3.91a6.23 6.23 0 0 0-3.95-6.04l-4.41-1.76v-.61a5.74 5.74 0 0 0 2.55-3.15 3.09 3.09 0 1 0 1.72-5.49v-1.94a7.4 7.4 0 0 0-7.41-7.38h-.53a7.4 7.4 0 0 0-7.42 7.38v1.93a3.1 3.1 0 0 0 1.75 5.5 5.75 5.75 0 0 0 2.55 3.15v.61l-4.53 1.76a6.23 6.23 0 0 0-3.95 6.04v3.92c0 .61.5 1.1 1.1 1.1h2.81a1.1 1.1 0 1 0 0-2.2h-1.7v-2.82c0-3.05 2.4-3.93 2.48-3.97l.05-.01 4.15-1.62 2.2 2.13c.2.2.48.32.77.32h.02c.3-.01.57-.13.78-.34l2.08-2.15 4.13 1.65.05.02c.1.04 2.5.92 2.5 3.97v2.82h-14a1.1 1.1 0 1 0 0 2.2h15.1c.61 0 1.1-.5 1.1-1.11zM52 46.08a.9.9 0 0 1-.18-1.34l.18-.05zm12.47-1.4l.12.03a.9.9 0 0 1-.12 1.34zm-7.42 7.63c.23.03.45.04.68.04h1c.24 0 .46-.01.69-.04v.6l-1.22 1.25-1.15-1.11zm4.52-13.05a1.1 1.1 0 0 0-.86-.83 1.1 1.1 0 0 0-1.11.43c-2 2.74-6.43 2.77-6.49 2.77l-.11.01h-.04l-.07.01-.05.02-.06.01-.03.01v-.7a5.2 5.2 0 0 1 5.2-5.18h.53a5.2 5.2 0 0 1 5.21 5.18v.69l-.05-.01-.04-.01c-1.52-.35-2.02-2.38-2.03-2.4zm-2.83 10.89h-1a3.51 3.51 0 0 1-3.52-3.5v-2.89c1.43-.15 3.96-.65 5.91-2.27a4.96 4.96 0 0 0 2.12 2.02v3.14c0 1.93-1.57 3.5-3.51 3.5zM46.83 30.28v-3.91a6.24 6.24 0 0 0-3.95-6.04l-4.4-1.75v-.62a5.75 5.75 0 0 0 2.55-3.15 3.09 3.09 0 1 0 1.72-5.49V7.38A7.4 7.4 0 0 0 35.33 0h-.53a7.4 7.4 0 0 0-7.41 7.38v1.93a3.1 3.1 0 0 0 1.74 5.5 5.75 5.75 0 0 0 2.55 3.15v.61l-4.52 1.76a6.23 6.23 0 0 0-3.96 6.04v3.92c0 .61.5 1.1 1.1 1.1h2.82a1.1 1.1 0 1 0 0-2.2h-1.7v-2.82c0-3.05 2.39-3.93 2.48-3.96l.05-.02 4.14-1.62 2.2 2.14c.21.2.49.31.78.31h.01c.3-.01.58-.13.78-.34l2.08-2.14 4.14 1.64.05.02c.1.04 2.5.92 2.5 3.97v2.82h-14a1.1 1.1 0 1 0 0 2.2h15.1c.61 0 1.1-.5 1.1-1.11zM28.85 12.47a.9.9 0 0 1-.4-.75c0-.23.08-.43.22-.59l.18-.04zm12.46-1.4c.04.02.08.03.13.03a.91.91 0 0 1-.12 1.35zM33.9 18.7c.22.03.45.04.68.04h1c.23 0 .46-.01.68-.04v.6l-1.22 1.26-1.14-1.11zm4.52-13.04c-.1-.42-.43-.75-.86-.84-.43-.08-.86.09-1.12.44-1.99 2.73-6.43 2.76-6.48 2.76-.13 0-.25.03-.36.06v-.7a5.2 5.2 0 0 1 5.2-5.18h.53a5.2 5.2 0 0 1 5.2 5.18v.69l-.05-.01-.03-.01c-1.53-.34-2.03-2.38-2.03-2.39zm-2.84 10.88h-1a3.51 3.51 0 0 1-3.52-3.5v-2.88c1.43-.16 3.96-.66 5.92-2.28A4.9 4.9 0 0 0 39.1 9.9v3.14c0 1.93-1.58 3.5-3.52 3.5zm-20.3 35.64v-.61a5.75 5.75 0 0 0 2.55-3.15 3.09 3.09 0 1 0 1.72-5.49v-1.94a7.4 7.4 0 0 0-7.42-7.38h-.53a7.4 7.4 0 0 0-7.41 7.38v1.93a3.1 3.1 0 0 0 1.74 5.5 5.75 5.75 0 0 0 2.55 3.15v.61l-4.52 1.76A6.23 6.23 0 0 0 0 59.98v3.92c0 .6.5 1.1 1.1 1.1h2.82a1.1 1.1 0 1 0 0-2.2h-1.7v-2.82c0-3.05 2.38-3.93 2.48-3.97l.05-.01 4.14-1.62 2.2 2.13c.21.2.49.32.78.32h.01c.3-.01.58-.13.78-.34l2.08-2.15 4.14 1.65.05.02c.1.04 2.5.92 2.5 3.97v2.82h-14a1.1 1.1 0 1 0 0 2.2h15.1c.6 0 1.1-.5 1.1-1.11v-3.91a6.23 6.23 0 0 0-3.95-6.04zm-9.63-7.49v1.39a.9.9 0 0 1-.19-1.34l.19-.05zm12.46-.01l.12.03a.9.9 0 0 1-.12 1.34zm-7.41 7.63c.22.03.45.04.68.04h1c.23 0 .46-.01.68-.04v.6l-1.22 1.25-1.14-1.11zm4.52-13.05a1.1 1.1 0 0 0-.86-.83 1.1 1.1 0 0 0-1.12.43c-1.99 2.74-6.43 2.77-6.48 2.77l-.12.01h-.03l-.08.01-.05.02-.06.01-.02.01v-.7a5.2 5.2 0 0 1 5.2-5.18h.53a5.2 5.2 0 0 1 5.2 5.18v.69l-.05-.01-.03-.01c-1.53-.35-2.03-2.38-2.03-2.4zm-2.84 10.89h-1a3.51 3.51 0 0 1-3.52-3.5v-2.89c1.43-.15 3.96-.65 5.92-2.27a4.96 4.96 0 0 0 2.12 2.02v3.14c0 1.93-1.58 3.5-3.52 3.5zm11.8.51l9.13-5.24v-10.5a1.1 1.1 0 0 1 2.21 0v10.5l9.13 5.24a1.1 1.1 0 1 1-1.1 1.91l-9.14-5.25-9.13 5.25a1.1 1.1 0 0 1-1.51-.4 1.1 1.1 0 0 1 .4-1.51z"/></svg>