<svg xmlns="http://www.w3.org/2000/svg" width="70" height="71" viewBox="0 0 70 71"><path fill="#ef9610" d="M69.96 34.5v-5.18a3.02 3.02 0 0 0-3-3.03h-.11c-.53 0-1.02.14-1.45.38a2.98 2.98 0 0 0-2.34-1.15h-.12c-.5 0-.99.13-1.41.36a2.98 2.98 0 0 0-2.3-1.08h-.1c-.43 0-.83.09-1.2.25a3 3 0 0 0-2.5-1.37h-.12c-1.65 0-3 1.36-3 3.03v2.91c-1.2-.13-2.14.1-2.85.7-1.55 1.31-1.4 3.89-1.24 6.39.2 3.41 3.22 6.27 4.38 7.26v1.91h-.58c-.6 0-1.1.5-1.1 1.11v22.9c0 .61.5 1.11 1.1 1.11H68.3c.61 0 1.1-.5 1.1-1.11v-22.9c0-.61-.49-1.11-1.1-1.11h-.69v-3.04c2.72-2.77 2.41-7.72 2.36-8.34zM53.13 53.83h14.06v14.94H53.13zm0-5.72h14.06v3.5H53.13zm12.66-6.6c-.25.21-.4.52-.4.85v3.52H54.82v-2.45c0-.35-.17-.68-.45-.89-.03-.03-3.75-2.86-3.94-5.96-.1-1.77-.24-3.97.45-4.55.26-.22.76-.27 1.44-.16v1.51c0 .61.5 1.11 1.1 1.11.62 0 1.11-.5 1.11-1.11v-6.67c0-.44.35-.8.8-.8h.1c.44 0 .8.36.8.8V31c0 .62.5 1.12 1.1 1.12.61 0 1.1-.5 1.1-1.12v-3.56a.8.8 0 0 1 .7-.42h.12c.43 0 .79.36.79.8V31c0 .62.5 1.12 1.1 1.12.61 0 1.1-.5 1.1-1.12v-2.81c.14-.27.4-.44.71-.44h.12c.43 0 .79.36.79.8v3a1.1 1.1 0 1 0 2.2 0v-2.23c0-.44.36-.8.8-.8h.11c.44 0 .8.36.8.8v5.33c.12 1.33.02 5.16-1.97 6.86zm-9.4-23.29a2.92 2.92 0 0 0-1.54-3.84l-6-2.54.28-1.01v-.04a3 3 0 0 0-.36-2.28 3 3 0 0 0-1.85-1.36l-.12-.03a3 3 0 0 0-1.49.03 3.01 3.01 0 0 0-2.02-1.66l-.11-.03c-.5-.11-.99-.1-1.45.02a2.94 2.94 0 0 0-1.99-1.58l-.11-.03c-.4-.1-.82-.11-1.21-.04a2.99 2.99 0 0 0-2.13-1.91l-.11-.02a3 3 0 0 0-3.6 2.22l-.2.74-7.78-3.3a.15.15 0 0 0-.07-.02l-.04-.02-.06-.01-.05-.01-.05-.01-.07-.01h-.01L16.85 1a1.1 1.1 0 0 0-1.07.66c-.19.42-.1.92.23 1.25l5.2 5.11v.01l.02.01.06.06.04.03.04.02v.01l.06.04c.14.09.3.17.45.23l4.72 2.02a23.21 23.21 0 0 0-.75 3.36c-.6 3.49 1.87 7.11 2.7 8.21v5.06h-.92c-.6 0-1.1.49-1.1 1.11v41.7c0 .61.5 1.11 1.1 1.11H43.9c.6 0 1.1-.5 1.1-1.11V42.03c0-.61-.5-1.11-1.1-1.11-.61 0-1.1.5-1.1 1.11v26.74H28.73V35.03H42.8v3.09c0 .61.49 1.11 1.1 1.11.6 0 1.1-.5 1.1-1.11v-9.93c0-.62-.5-1.11-1.1-1.11h-.46V24.2c1.87-1.24 2.92-3.41 3.48-5.1l5.05 2.15a2.96 2.96 0 0 0 2.22.02c.73-.3 1.29-.86 1.6-1.58zM28.74 29.3H42.8v3.5H28.73zM22.48 3.6l-.82 1.75-1.97-1.94zm9.32 3.43l-.77 2.88-7.56-3.22 1.25-2.66zM47 10.26l-1.64 5.95-.03.15c0 .04-.7 4.78-3.48 6.21-.37.19-.6.57-.6.99l-.02 3.4H30.76v-5.33c0-.26-.1-.52-.26-.72-.03-.03-3-3.66-2.47-6.72.16-.96.35-2.03.61-2.87l2 .85a1.1 1.1 0 0 0 2.1-.1l1.97-7.38v-.04a.8.8 0 0 1 .96-.59l.11.03a.8.8 0 0 1 .59.96l-.11.48-1.3 4.54c-.17.59.16 1.21.75 1.38a1.1 1.1 0 0 0 1.37-.76l1.25-4.39c.2-.23.5-.34.79-.27l.11.03a.8.8 0 0 1 .59.95l-1.16 3.94a1.1 1.1 0 0 0 1.06 1.43c.48 0 .92-.31 1.06-.8l1.07-3.64c.19-.26.5-.38.82-.31l.11.03c.43.1.69.53.59.96l-.17.71-.94 3.02a1.12 1.12 0 0 0 1.05 1.45c.47 0 .9-.3 1.06-.78l.95-3.06v-.04l.02-.04c.1-.43.53-.69.95-.59l.11.03c.42.1.69.52.6.94zm3.74 4.8l-1.24 2.72-2.02-.86.03-.18.75-2.74zm3.62 2.3l-.61 1.46a.68.68 0 0 1-.38.38.67.67 0 0 1-.54 0l-1.3-.55 1.25-2.73 1.2.51a.71.71 0 0 1 .38.93zm-39.4 14.3h-.12c-.5 0-.98.13-1.4.35a3 3 0 0 0-2.3-1.07h-.12c-.41 0-.82.08-1.18.24a3 3 0 0 0-2.5-1.36h-.12c-1.66 0-3 1.36-3 3.03v2.91c-1.2-.13-2.15.1-2.86.7-1.54 1.3-1.39 3.89-1.24 6.39.2 3.41 3.22 6.27 4.39 7.26v1.91h-.58c-.61 0-1.1.5-1.1 1.11v16.76c0 .61.49 1.11 1.1 1.11H20.2c.6 0 1.1-.5 1.1-1.11V53.13c0-.61-.5-1.11-1.1-1.11h-.7v-3.04c2.72-2.77 2.42-7.72 2.36-8.34v-5.18a3.02 3.02 0 0 0-3-3.03h-.11c-.52 0-1.02.14-1.44.38a2.98 2.98 0 0 0-2.35-1.15zM5.03 59.97H19.1v8.8H5.03zm0-5.72H19.1v3.5H5.03zM16.85 38.8c.62 0 1.1-.5 1.1-1.11v-2.23c0-.44.36-.8.8-.8h.12c.43 0 .79.36.79.8v5.33c.13 1.33.02 5.16-1.97 6.86-.25.21-.39.52-.39.85v3.52H6.71v-2.45c0-.35-.16-.68-.44-.89-1.05-.78-3.79-3.38-3.94-5.97-.11-1.76-.24-3.96.45-4.54.25-.22.76-.27 1.44-.16v1.51c0 .61.5 1.11 1.1 1.11.61 0 1.1-.5 1.1-1.11v-6.67c0-.44.36-.8.8-.8h.11c.44 0 .8.36.8.8v4.29c0 .62.49 1.12 1.1 1.12.6 0 1.1-.5 1.1-1.12v-3.56a.8.8 0 0 1 .7-.42h.11c.44 0 .8.36.8.8v3.18c0 .62.49 1.12 1.1 1.12.6 0 1.1-.5 1.1-1.12v-2.82a.8.8 0 0 1 .7-.43h.12c.44 0 .8.36.8.8v3c0 .61.49 1.11 1.1 1.11z"/></svg>