<svg xmlns="http://www.w3.org/2000/svg" width="21" height="18" viewBox="0 0 21 18"><path fill="#fff" d="M20.72 17.82a.72.72 0 0 1-.64.16c-1.8-.44-4.96-.94-7.95-.17 1.73-1.73 4.17-2.04 5.66-2.04 1.05 0 1.91-.92 1.91-2.03V3.75h.55c.41 0 .75.36.75.8V17.2c0 .25-.1.47-.28.62zm-2.94-3.29c-1.75 0-4.67.4-6.7 2.63V4.66a.8.8 0 0 1 .1-.4C12.86 1.43 16.04 1 17.79 1c.2 0 .4.08.54.23.14.15.22.35.22.56v11.94c0 .44-.34.8-.75.8zm-14.56 0a.78.78 0 0 1-.76-.8V1.8c0-.22.08-.42.22-.57A.72.72 0 0 1 3.21 1c1.76 0 4.94.43 6.6 3.26.07.12.1.26.1.4v12.5c-2.01-2.24-4.95-2.62-6.7-2.63zm0 1.24c-1.06 0-1.92-.92-1.92-2.03V3.75H.75a.77.77 0 0 0-.75.8V17.2c0 .25.1.47.28.62.18.16.41.21.64.16 1.8-.44 4.96-.94 7.96-.16-1.74-1.74-4.18-2.05-5.67-2.05z"/></svg>