<svg xmlns="http://www.w3.org/2000/svg" width="65" height="70" viewBox="0 0 65 70"><path fill="#ef9610" d="M63.61 48.06l-2.32-2.34a4.35 4.35 0 0 0-6.28 0L39.8 61.01c-.22.21-.34.51-.34.82v7c0 .65.52 1.17 1.16 1.17h6.96c.31 0 .6-.12.82-.34l15.21-15.29a4.28 4.28 0 0 0 0-6.31zm-16.7 16.11l10.08-10.14 1.84 1.85-10.08 10.14zm-5.13-1.86l5.32 5.36h-5.32zm13.57-9.93L45.26 62.52l-1.84-1.85L53.5 50.53zm6.62.34l-1.5 1.51-5.32-5.35 1.5-1.51c.91-.92 2.08-.92 3 0l2.32 2.33c.94.95.94 2.08 0 3.02zm-1.62-11.89V17.5c0-.65-.52-1.17-1.16-1.17h-11.6a3.5 3.5 0 0 1-3.49-3.5V7a1.16 1.16 0 1 0-2.32 0v5.83c0 3.22 2.6 5.84 5.8 5.84h10.45v22.16a1.16 1.16 0 1 0 2.32 0zM11.61 22.17v7c0 .64.52 1.16 1.16 1.16h6.96c.64 0 1.16-.52 1.16-1.16v-7c0-.65-.52-1.17-1.16-1.17h-6.96c-.64 0-1.16.52-1.16 1.17zm2.32 1.16h4.64V28h-4.64zM11.6 50.17v7c0 .64.52 1.16 1.16 1.16h6.96c.64 0 1.16-.52 1.16-1.16v-7c0-.65-.52-1.17-1.16-1.17h-6.96c-.64 0-1.16.52-1.16 1.17zm2.32 1.16h4.64V56h-4.64zm-1.98-9.67l2.32 2.33c.22.22.51.34.82.34h.11c.35-.04.66-.23.85-.52l4.65-7c.35-.53.2-1.26-.33-1.62a1.16 1.16 0 0 0-1.6.33l-3.86 5.81-1.32-1.32a1.15 1.15 0 0 0-1.64 0 1.17 1.17 0 0 0 0 1.65zm43.42-28c.45-.46.45-1.2 0-1.65L43.77.34a1.15 1.15 0 0 0-.83-.34H5.8C2.6 0 0 2.62 0 5.83v58.34C0 67.38 2.6 70 5.8 70h30.18a1.16 1.16 0 0 0 0-2.33H5.8a3.5 3.5 0 0 1-3.48-3.5V5.83a3.5 3.5 0 0 1 3.48-3.5h36.66l11.27 11.33c.45.45 1.18.45 1.64 0zM44.1 50.17c0-.65-.52-1.17-1.16-1.17h-2.32a1.16 1.16 0 0 0 0 2.33h2.32c.64 0 1.16-.52 1.16-1.16zm4.65-7.01c0-.64-.52-1.16-1.17-1.16h-6.96a1.16 1.16 0 1 0 0 2.33h6.96c.65 0 1.17-.52 1.17-1.17zM47.58 28H38.3c-.64 0-1.16.52-1.16 1.17 0 .64.52 1.16 1.16 1.16h9.28c.64 0 1.16-.52 1.16-1.16 0-.65-.52-1.17-1.16-1.17zm-22.05-5.83c0 .64.52 1.16 1.16 1.16h11.6a1.16 1.16 0 1 0 0-2.33H26.7c-.64 0-1.16.52-1.16 1.17zm0 14c0 .64.52 1.16 1.16 1.16h2.32a1.16 1.16 0 1 0 0-2.33H26.7c-.64 0-1.16.52-1.16 1.17zm0 6.99c0 .65.52 1.17 1.16 1.17h9.29a1.16 1.16 0 0 0 0-2.33h-9.29c-.64 0-1.16.52-1.16 1.16zm0 14.01c0 .64.52 1.16 1.16 1.16h9.29a1.16 1.16 0 1 0 0-2.33h-9.29c-.64 0-1.16.52-1.16 1.17zm0-7c0 .64.52 1.16 1.16 1.16h9.29a1.16 1.16 0 1 0 0-2.33h-9.29c-.64 0-1.16.52-1.16 1.17zm8.13-19.84a1.16 1.16 0 1 0 0-2.33h-6.97a1.16 1.16 0 0 0 0 2.33zm12.76 5.84c0 .64-.52 1.16-1.16 1.16h-11.6a1.16 1.16 0 1 1 0-2.33h11.6c.64 0 1.16.52 1.16 1.17z"/></svg>