<svg xmlns="http://www.w3.org/2000/svg" width="70" height="70" viewBox="0 0 70 70"><path fill="#ef9610" d="M64.17 60.67h-3.5v8.16A1.18 1.18 0 0 1 59.5 70c-.3 0-.6-.12-.82-.34L47.01 57.99a1.16 1.16 0 0 1 0-1.65 1.16 1.16 0 0 1 1.65 0l9.67 9.68V59.5c0-.65.53-1.17 1.17-1.17h4.67a3.5 3.5 0 0 0 3.5-3.5v-35a3.5 3.5 0 0 0-3.5-3.5h-49a3.5 3.5 0 0 0-3.5 3.5v35a3.5 3.5 0 0 0 3.5 3.5h29.16a1.17 1.17 0 0 1 0 2.34H15.17a5.85 5.85 0 0 1-5.84-5.84v-35A5.84 5.84 0 0 1 15.17 14h49A5.84 5.84 0 0 1 70 19.83v35a5.84 5.84 0 0 1-5.83 5.84zm-4.67-49c-.64 0-1.17-.53-1.17-1.17V5.83a3.5 3.5 0 0 0-3.5-3.5h-49a3.5 3.5 0 0 0-3.5 3.5v35a3.5 3.5 0 0 0 3.5 3.5 1.17 1.17 0 0 1 0 2.34A5.84 5.84 0 0 1 0 40.83v-35A5.84 5.84 0 0 1 5.83 0h49a5.84 5.84 0 0 1 5.84 5.83v4.67c0 .64-.53 1.17-1.17 1.17zM57.17 49H45.5c-.64 0-1.17-.52-1.17-1.17 0-.64.53-1.16 1.17-1.16h11.67a1.16 1.16 0 1 1 0 2.33zm1.16-15.17c0 .65-.52 1.17-1.16 1.17H52.5c-.64 0-1.17-.52-1.17-1.17 0-.64.53-1.16 1.17-1.16h4.67c.64 0 1.16.52 1.16 1.16zm-24.5-8.16h21a1.16 1.16 0 1 1 0 2.33h-21a1.16 1.16 0 0 1 0-2.33zm-11.66 14H38.5c.64 0 1.17.52 1.17 1.16 0 .65-.53 1.17-1.17 1.17H22.17a1.17 1.17 0 1 1 0-2.33zM40.83 49H22.17a1.17 1.17 0 1 1 0-2.33h18.66a1.16 1.16 0 1 1 0 2.33zm14-9.33a1.16 1.16 0 1 1 0 2.33H43.17a1.17 1.17 0 1 1 0-2.33zm-17.5-5.84c0-.64.53-1.16 1.17-1.16h9.33a1.16 1.16 0 1 1 0 2.33H38.5c-.64 0-1.17-.52-1.17-1.17zM22.17 28a1.17 1.17 0 1 1 0-2.33h7a1.16 1.16 0 1 1 0 2.33zm11.66 4.67H22.17a1.16 1.16 0 1 0 0 2.33h11.66a1.17 1.17 0 1 0 0-2.33z"/></svg>