<svg xmlns="http://www.w3.org/2000/svg" width="70" height="71" viewBox="0 0 70 71"><path fill="#ef9610" d="M52.44 14.65c-.19-.62-.84-.96-1.46-.76-3.57 1.12-10.39 4.59-10.68 4.74-.57.29-.8.99-.5 1.57.2.4.61.63 1.03.63.18 0 .36-.04.53-.12.07-.04 6.94-3.53 10.33-4.6.6-.19.95-.85.75-1.46zM39.8 27.2a1.17 1.17 0 0 0 1.57.5c.07-.03 6.94-3.52 10.33-4.59.6-.19.95-.85.75-1.46-.19-.62-.84-.96-1.46-.76-3.57 1.12-10.39 4.59-10.68 4.74-.57.29-.8.99-.5 1.57zm0 7c.2.4.62.63 1.04.63.18 0 .36-.04.53-.12.07-.04 6.94-3.53 10.33-4.6.6-.19.95-.85.75-1.46-.19-.62-.84-.96-1.46-.76-3.57 1.12-10.39 4.59-10.68 4.74-.57.29-.8.99-.5 1.57zm0 14c.2.4.62.63 1.04.63.18 0 .36-.04.53-.12.07-.04 6.94-3.53 10.33-4.6.6-.19.95-.85.75-1.46-.19-.62-.84-.96-1.46-.76-3.57 1.12-10.39 4.59-10.68 4.74-.57.29-.8.99-.5 1.57zm0-7c.2.4.62.63 1.04.63.18 0 .36-.04.53-.12.07-.04 6.94-3.53 10.33-4.6.6-.19.95-.85.75-1.46-.19-.62-.84-.96-1.46-.76-3.57 1.12-10.39 4.59-10.68 4.74-.57.29-.8.99-.5 1.57zm-11.52 9.45c-7.2-1.69-15.4.46-15.74.56-.62.16-.99.8-.82 1.42a1.16 1.16 0 0 0 1.43.83c.07-.02 7.96-2.1 14.6-.54a1.16 1.16 0 1 0 .53-2.27zm0-7c-7.2-1.69-15.4.46-15.74.56-.62.16-.99.8-.82 1.42a1.16 1.16 0 0 0 1.43.83c.07-.02 7.96-2.1 14.6-.54a1.16 1.16 0 1 0 .53-2.27zm0-7c-7.2-1.69-15.4.46-15.74.56-.62.16-.99.8-.82 1.42a1.16 1.16 0 0 0 1.43.83c.07-.02 7.96-2.1 14.6-.54a1.16 1.16 0 1 0 .53-2.27zm.87-12.6a1.16 1.16 0 0 0-.87-1.4c-7.2-1.69-15.4.46-15.74.56-.62.16-.99.8-.82 1.42a1.16 1.16 0 0 0 1.43.83c.07-.02 7.96-2.1 14.6-.54.62.15 1.25-.24 1.4-.87zm-.87 5.6c-7.2-1.69-15.4.46-15.74.56-.62.16-.99.8-.82 1.42a1.16 1.16 0 0 0 1.43.83c.07-.02 7.96-2.1 14.6-.54a1.16 1.16 0 1 0 .53-2.27zM64.17 71H5.83A5.84 5.84 0 0 1 0 65.17v-45.5a1.17 1.17 0 1 1 2.33 0v45.5a3.5 3.5 0 0 0 3.5 3.5h28v-2.75A25.38 25.38 0 0 0 24.5 64a74.43 74.43 0 0 0-18.35 2.29 1.2 1.2 0 0 1-1.02-.19c-.3-.22-.46-.57-.46-.93V13.83c0-.52.34-.98.84-1.12.34-.1 8.45-2.38 18.99-2.38 6.04 0 10.82 2.36 11.02 2.46.4.2.65.6.65 1.04v44.64c3.55-2.02 11.87-6.54 19.83-9.31V3.87a123.84 123.84 0 0 0-16.88 8.62 1.17 1.17 0 0 1-1.24-1.98c.1-.06 9.54-5.94 18.88-9.44a1.17 1.17 0 0 1 1.57 1.1V50c0 .5-.32.95-.8 1.11C47.27 54.53 35.72 61.43 35.6 61.5c-.36.22-.81.22-1.18.01-.36-.2-.59-.59-.59-1.01V14.59a25.27 25.27 0 0 0-9.33-1.92A76.37 76.37 0 0 0 7 14.74v48.92a78.96 78.96 0 0 1 17.5-1.99c5.02 0 9.17 1.62 10.54 2.23 1.55-.57 6.54-2.23 11.63-2.23 7.82 0 13.69 1.25 16.33 1.95V14.78l-1.48-.28a1.17 1.17 0 0 1 .42-2.3c1.56.29 2.48.49 2.48.49.53.12.91.6.91 1.14v51.34a1.16 1.16 0 0 1-1.53 1.1c-.07-.02-6.97-2.27-17.13-2.27-4.37 0-8.8 1.39-10.5 1.98v2.69h28c1.93 0 3.5-1.58 3.5-3.5v-45.5a1.16 1.16 0 1 1 2.33 0v45.5A5.84 5.84 0 0 1 64.17 71z"/></svg>