<svg xmlns="http://www.w3.org/2000/svg" width="31" height="31" viewBox="0 0 31 31"><path fill="#44678d" d="M15.5 0a15.5 15.5 0 1 0 0 31 15.5 15.5 0 0 0 0-31zm7.86 17.18c.72.7 1.49 1.37 2.14 2.15.28.34.56.7.76 1.1.3.57.03 1.2-.48 1.23H22.6a2.45 2.45 0 0 1-2.02-.83c-.44-.44-.85-.92-1.27-1.38a2.77 2.77 0 0 0-.57-.51c-.43-.28-.81-.2-1.06.25a3.3 3.3 0 0 0-.33 1.49c-.04.75-.26.94-1.01.98a8.16 8.16 0 0 1-4.55-.98 10.12 10.12 0 0 1-3.06-2.86 38.67 38.67 0 0 1-4.02-7.18c-.25-.56-.07-.87.56-.88 1.03-.02 2.07-.02 3.1 0 .43 0 .71.25.87.65a19.31 19.31 0 0 0 2.1 3.9c.23.32.47.65.8.88.37.25.65.17.82-.25.11-.26.16-.54.19-.81.08-.96.09-1.92-.05-2.88-.09-.6-.43-.98-1.02-1.09-.31-.06-.26-.17-.12-.34.26-.3.5-.49.98-.49h3.59c.56.11.69.37.77.94v3.98c-.01.22.11.88.5 1.02.32.1.53-.15.72-.35.86-.91 1.47-1.99 2.02-3.1.25-.5.45-1 .66-1.52.15-.37.38-.56.81-.55h3.45c.11 0 .21 0 .31.02.58.1.74.35.56.92-.28.9-.83 1.63-1.37 2.38-.58.8-1.19 1.57-1.77 2.37-.52.73-.48 1.1.17 1.74z"/></svg>