<svg xmlns="http://www.w3.org/2000/svg" width="30" height="30" viewBox="0 0 30 30"><path fill="#dc472e" d="M15 30a15 15 0 1 1 0-30 15 15 0 0 1 0 30zM11.65 5.09l-.77 2.97-.8-2.97h-1.2l.73 2.1c.36 1.06.59 1.86.69 2.4v3.07h1.14V9.59l1.36-4.5zm4.18 3.77c0-.6-.11-1.05-.32-1.33a1.39 1.39 0 0 0-1.19-.58c-.51 0-.91.2-1.19.58-.22.28-.32.72-.32 1.33v1.97c0 .6.1 1.04.32 1.33.28.38.68.57 1.19.57.51 0 .91-.19 1.19-.57.21-.28.32-.73.32-1.33zm3.78-1.84h-1.02v4.3c-.23.33-.45.49-.65.49-.14 0-.22-.08-.24-.24l-.01-.4V7.02h-1.02v4.46c0 .4.03.66.09.83.1.3.33.42.66.42.37 0 .76-.22 1.17-.69v.62h1.02zm3.47 8.1a2.12 2.12 0 0 0-1.81-1.64c-2.08-.23-4.18-.23-6.27-.23s-4.19 0-6.26.23a2.1 2.1 0 0 0-1.81 1.64c-.29 1.27-.3 2.65-.3 3.96 0 1.3 0 2.69.29 3.96.21.89.94 1.54 1.81 1.64 2.08.23 4.18.23 6.27.23s4.19 0 6.27-.23a2.1 2.1 0 0 0 1.8-1.64c.3-1.27.3-2.66.3-3.96 0-1.3 0-2.69-.29-3.95zm-1.22 6.9c-.28.4-.69.6-1.22.6s-.93-.19-1.22-.57c-.22-.28-.33-.72-.33-1.31v-1.96c0-.6.1-1.03.31-1.31.3-.39.7-.58 1.21-.58s.91.2 1.2.58c.21.28.31.72.31 1.31v1.16H20.1v.99c0 .51.17.77.51.77.25 0 .4-.13.46-.4.01-.06.02-.28.02-.69h1.03v.15l-.02.65c-.03.22-.11.43-.24.6zM20.1 19.1h1.01v-.52c0-.52-.17-.78-.5-.78-.34 0-.51.26-.51.78zm-2.71 3.52c-.36 0-.7-.2-1.04-.62v.54h-1.01v-7.49h1.01v2.45c.32-.4.67-.6 1.04-.6.41 0 .68.2.81.62.07.23.1.6.1 1.13v2.22c0 .51-.03.89-.1 1.12-.13.42-.4.63-.81.63zm-.1-4.05c0-.5-.15-.77-.44-.77-.16 0-.33.08-.5.25v3.4c.17.17.34.25.5.25.29 0 .44-.25.44-.75zm-3.84 3.36c-.4.47-.78.69-1.16.69-.32 0-.55-.13-.65-.42a3.04 3.04 0 0 1-.09-.82v-4.42h1.01v4.11l.01.4c.03.15.11.23.24.23.2 0 .42-.16.64-.47v-4.27h1.01v5.58h-1.01zm-3.26.61H9.07v-6.43H7.88v-1.06h3.53v1.06h-1.22zm4.62-11.52V8.65c0-.52-.16-.78-.49-.78-.33 0-.49.26-.49.78v2.37c0 .53.16.79.49.79.33 0 .49-.26.49-.79z"/></svg>