<?xml version="1.0" encoding="utf-8"?>
<svg display="none" version="1.1" xmlns="http://www.w3.org/2000/svg" xmlns:xlink="http://www.w3.org/1999/xlink">
	<title>iconset</title>
	<defs>
		<symbol id="checked" viewBox="0 0 20 14">
			<path d="M20 .86L19.15 0 7 11.38.85 6 0 6.86 7 14z"/>
		</symbol>

		<symbol id="gets-1" viewBox="0 0 70 71">
			<path d="M52.44 14.65c-.19-.62-.84-.96-1.46-.76-3.57 1.12-10.39 4.59-10.68 4.74-.57.29-.8.99-.5 1.57.2.4.61.63 1.03.63.18 0 .36-.04.53-.12.07-.04 6.94-3.53 10.33-4.6.6-.19.95-.85.75-1.46zM39.8 27.2a1.17 1.17 0 0 0 1.57.5c.07-.03 6.94-3.52 10.33-4.59.6-.19.95-.85.75-1.46-.19-.62-.84-.96-1.46-.76-3.57 1.12-10.39 4.59-10.68 4.74-.57.29-.8.99-.5 1.57zm0 7c.2.4.62.63 1.04.63.18 0 .36-.04.53-.12.07-.04 6.94-3.53 10.33-4.6.6-.19.95-.85.75-1.46-.19-.62-.84-.96-1.46-.76-3.57 1.12-10.39 4.59-10.68 4.74-.57.29-.8.99-.5 1.57zm0 14c.2.4.62.63 1.04.63.18 0 .36-.04.53-.12.07-.04 6.94-3.53 10.33-4.6.6-.19.95-.85.75-1.46-.19-.62-.84-.96-1.46-.76-3.57 1.12-10.39 4.59-10.68 4.74-.57.29-.8.99-.5 1.57zm0-7c.2.4.62.63 1.04.63.18 0 .36-.04.53-.12.07-.04 6.94-3.53 10.33-4.6.6-.19.95-.85.75-1.46-.19-.62-.84-.96-1.46-.76-3.57 1.12-10.39 4.59-10.68 4.74-.57.29-.8.99-.5 1.57zm-11.52 9.45c-7.2-1.69-15.4.46-15.74.56-.62.16-.99.8-.82 1.42a1.16 1.16 0 0 0 1.43.83c.07-.02 7.96-2.1 14.6-.54a1.16 1.16 0 1 0 .53-2.27zm0-7c-7.2-1.69-15.4.46-15.74.56-.62.16-.99.8-.82 1.42a1.16 1.16 0 0 0 1.43.83c.07-.02 7.96-2.1 14.6-.54a1.16 1.16 0 1 0 .53-2.27zm0-7c-7.2-1.69-15.4.46-15.74.56-.62.16-.99.8-.82 1.42a1.16 1.16 0 0 0 1.43.83c.07-.02 7.96-2.1 14.6-.54a1.16 1.16 0 1 0 .53-2.27zm.87-12.6a1.16 1.16 0 0 0-.87-1.4c-7.2-1.69-15.4.46-15.74.56-.62.16-.99.8-.82 1.42a1.16 1.16 0 0 0 1.43.83c.07-.02 7.96-2.1 14.6-.54.62.15 1.25-.24 1.4-.87zm-.87 5.6c-7.2-1.69-15.4.46-15.74.56-.62.16-.99.8-.82 1.42a1.16 1.16 0 0 0 1.43.83c.07-.02 7.96-2.1 14.6-.54a1.16 1.16 0 1 0 .53-2.27zM64.17 71H5.83A5.84 5.84 0 0 1 0 65.17v-45.5a1.17 1.17 0 1 1 2.33 0v45.5a3.5 3.5 0 0 0 3.5 3.5h28v-2.75A25.38 25.38 0 0 0 24.5 64a74.43 74.43 0 0 0-18.35 2.29 1.2 1.2 0 0 1-1.02-.19c-.3-.22-.46-.57-.46-.93V13.83c0-.52.34-.98.84-1.12.34-.1 8.45-2.38 18.99-2.38 6.04 0 10.82 2.36 11.02 2.46.4.2.65.6.65 1.04v44.64c3.55-2.02 11.87-6.54 19.83-9.31V3.87a123.84 123.84 0 0 0-16.88 8.62 1.17 1.17 0 0 1-1.24-1.98c.1-.06 9.54-5.94 18.88-9.44a1.17 1.17 0 0 1 1.57 1.1V50c0 .5-.32.95-.8 1.11C47.27 54.53 35.72 61.43 35.6 61.5c-.36.22-.81.22-1.18.01-.36-.2-.59-.59-.59-1.01V14.59a25.27 25.27 0 0 0-9.33-1.92A76.37 76.37 0 0 0 7 14.74v48.92a78.96 78.96 0 0 1 17.5-1.99c5.02 0 9.17 1.62 10.54 2.23 1.55-.57 6.54-2.23 11.63-2.23 7.82 0 13.69 1.25 16.33 1.95V14.78l-1.48-.28a1.17 1.17 0 0 1 .42-2.3c1.56.29 2.48.49 2.48.49.53.12.91.6.91 1.14v51.34a1.16 1.16 0 0 1-1.53 1.1c-.07-.02-6.97-2.27-17.13-2.27-4.37 0-8.8 1.39-10.5 1.98v2.69h28c1.93 0 3.5-1.58 3.5-3.5v-45.5a1.16 1.16 0 1 1 2.33 0v45.5A5.84 5.84 0 0 1 64.17 71z"/>
		</symbol>

		<symbol id="gets-2" viewBox="0 0 65 70">
			<path d="M63.61 48.06l-2.32-2.34a4.35 4.35 0 0 0-6.28 0L39.8 61.01c-.22.21-.34.51-.34.82v7c0 .65.52 1.17 1.16 1.17h6.96c.31 0 .6-.12.82-.34l15.21-15.29a4.28 4.28 0 0 0 0-6.31zm-16.7 16.11l10.08-10.14 1.84 1.85-10.08 10.14zm-5.13-1.86l5.32 5.36h-5.32zm13.57-9.93L45.26 62.52l-1.84-1.85L53.5 50.53zm6.62.34l-1.5 1.51-5.32-5.35 1.5-1.51c.91-.92 2.08-.92 3 0l2.32 2.33c.94.95.94 2.08 0 3.02zm-1.62-11.89V17.5c0-.65-.52-1.17-1.16-1.17h-11.6a3.5 3.5 0 0 1-3.49-3.5V7a1.16 1.16 0 1 0-2.32 0v5.83c0 3.22 2.6 5.84 5.8 5.84h10.45v22.16a1.16 1.16 0 1 0 2.32 0zM11.61 22.17v7c0 .64.52 1.16 1.16 1.16h6.96c.64 0 1.16-.52 1.16-1.16v-7c0-.65-.52-1.17-1.16-1.17h-6.96c-.64 0-1.16.52-1.16 1.17zm2.32 1.16h4.64V28h-4.64zM11.6 50.17v7c0 .64.52 1.16 1.16 1.16h6.96c.64 0 1.16-.52 1.16-1.16v-7c0-.65-.52-1.17-1.16-1.17h-6.96c-.64 0-1.16.52-1.16 1.17zm2.32 1.16h4.64V56h-4.64zm-1.98-9.67l2.32 2.33c.22.22.51.34.82.34h.11c.35-.04.66-.23.85-.52l4.65-7c.35-.53.2-1.26-.33-1.62a1.16 1.16 0 0 0-1.6.33l-3.86 5.81-1.32-1.32a1.15 1.15 0 0 0-1.64 0 1.17 1.17 0 0 0 0 1.65zm43.42-28c.45-.46.45-1.2 0-1.65L43.77.34a1.15 1.15 0 0 0-.83-.34H5.8C2.6 0 0 2.62 0 5.83v58.34C0 67.38 2.6 70 5.8 70h30.18a1.16 1.16 0 0 0 0-2.33H5.8a3.5 3.5 0 0 1-3.48-3.5V5.83a3.5 3.5 0 0 1 3.48-3.5h36.66l11.27 11.33c.45.45 1.18.45 1.64 0zM44.1 50.17c0-.65-.52-1.17-1.16-1.17h-2.32a1.16 1.16 0 0 0 0 2.33h2.32c.64 0 1.16-.52 1.16-1.16zm4.65-7.01c0-.64-.52-1.16-1.17-1.16h-6.96a1.16 1.16 0 1 0 0 2.33h6.96c.65 0 1.17-.52 1.17-1.17zM47.58 28H38.3c-.64 0-1.16.52-1.16 1.17 0 .64.52 1.16 1.16 1.16h9.28c.64 0 1.16-.52 1.16-1.16 0-.65-.52-1.17-1.16-1.17zm-22.05-5.83c0 .64.52 1.16 1.16 1.16h11.6a1.16 1.16 0 1 0 0-2.33H26.7c-.64 0-1.16.52-1.16 1.17zm0 14c0 .64.52 1.16 1.16 1.16h2.32a1.16 1.16 0 1 0 0-2.33H26.7c-.64 0-1.16.52-1.16 1.17zm0 6.99c0 .65.52 1.17 1.16 1.17h9.29a1.16 1.16 0 0 0 0-2.33h-9.29c-.64 0-1.16.52-1.16 1.16zm0 14.01c0 .64.52 1.16 1.16 1.16h9.29a1.16 1.16 0 1 0 0-2.33h-9.29c-.64 0-1.16.52-1.16 1.17zm0-7c0 .64.52 1.16 1.16 1.16h9.29a1.16 1.16 0 1 0 0-2.33h-9.29c-.64 0-1.16.52-1.16 1.17zm8.13-19.84a1.16 1.16 0 1 0 0-2.33h-6.97a1.16 1.16 0 0 0 0 2.33zm12.76 5.84c0 .64-.52 1.16-1.16 1.16h-11.6a1.16 1.16 0 1 1 0-2.33h11.6c.64 0 1.16.52 1.16 1.17z"/>
		</symbol>

		<symbol id="gets-3" viewBox="0 0 70 70">
			<path d="M64.17 60.67h-3.5v8.16A1.18 1.18 0 0 1 59.5 70c-.3 0-.6-.12-.82-.34L47.01 57.99a1.16 1.16 0 0 1 0-1.65 1.16 1.16 0 0 1 1.65 0l9.67 9.68V59.5c0-.65.53-1.17 1.17-1.17h4.67a3.5 3.5 0 0 0 3.5-3.5v-35a3.5 3.5 0 0 0-3.5-3.5h-49a3.5 3.5 0 0 0-3.5 3.5v35a3.5 3.5 0 0 0 3.5 3.5h29.16a1.17 1.17 0 0 1 0 2.34H15.17a5.85 5.85 0 0 1-5.84-5.84v-35A5.84 5.84 0 0 1 15.17 14h49A5.84 5.84 0 0 1 70 19.83v35a5.84 5.84 0 0 1-5.83 5.84zm-4.67-49c-.64 0-1.17-.53-1.17-1.17V5.83a3.5 3.5 0 0 0-3.5-3.5h-49a3.5 3.5 0 0 0-3.5 3.5v35a3.5 3.5 0 0 0 3.5 3.5 1.17 1.17 0 0 1 0 2.34A5.84 5.84 0 0 1 0 40.83v-35A5.84 5.84 0 0 1 5.83 0h49a5.84 5.84 0 0 1 5.84 5.83v4.67c0 .64-.53 1.17-1.17 1.17zM57.17 49H45.5c-.64 0-1.17-.52-1.17-1.17 0-.64.53-1.16 1.17-1.16h11.67a1.16 1.16 0 1 1 0 2.33zm1.16-15.17c0 .65-.52 1.17-1.16 1.17H52.5c-.64 0-1.17-.52-1.17-1.17 0-.64.53-1.16 1.17-1.16h4.67c.64 0 1.16.52 1.16 1.16zm-24.5-8.16h21a1.16 1.16 0 1 1 0 2.33h-21a1.16 1.16 0 0 1 0-2.33zm-11.66 14H38.5c.64 0 1.17.52 1.17 1.16 0 .65-.53 1.17-1.17 1.17H22.17a1.17 1.17 0 1 1 0-2.33zM40.83 49H22.17a1.17 1.17 0 1 1 0-2.33h18.66a1.16 1.16 0 1 1 0 2.33zm14-9.33a1.16 1.16 0 1 1 0 2.33H43.17a1.17 1.17 0 1 1 0-2.33zm-17.5-5.84c0-.64.53-1.16 1.17-1.16h9.33a1.16 1.16 0 1 1 0 2.33H38.5c-.64 0-1.17-.52-1.17-1.17zM22.17 28a1.17 1.17 0 1 1 0-2.33h7a1.16 1.16 0 1 1 0 2.33zm11.66 4.67H22.17a1.16 1.16 0 1 0 0 2.33h11.66a1.17 1.17 0 1 0 0-2.33z"/>
		</symbol>

		<symbol id="edge-7" viewBox="0 0 70 65">
			<path d="M70 63.89v-3.91a6.23 6.23 0 0 0-3.95-6.04l-4.41-1.76v-.61a5.74 5.74 0 0 0 2.55-3.15 3.09 3.09 0 1 0 1.72-5.49v-1.94a7.4 7.4 0 0 0-7.41-7.38h-.53a7.4 7.4 0 0 0-7.42 7.38v1.93a3.1 3.1 0 0 0 1.75 5.5 5.75 5.75 0 0 0 2.55 3.15v.61l-4.53 1.76a6.23 6.23 0 0 0-3.95 6.04v3.92c0 .61.5 1.1 1.1 1.1h2.81a1.1 1.1 0 1 0 0-2.2h-1.7v-2.82c0-3.05 2.4-3.93 2.48-3.97l.05-.01 4.15-1.62 2.2 2.13c.2.2.48.32.77.32h.02c.3-.01.57-.13.78-.34l2.08-2.15 4.13 1.65.05.02c.1.04 2.5.92 2.5 3.97v2.82h-14a1.1 1.1 0 1 0 0 2.2h15.1c.61 0 1.1-.5 1.1-1.11zM52 46.08a.9.9 0 0 1-.18-1.34l.18-.05zm12.47-1.4l.12.03a.9.9 0 0 1-.12 1.34zm-7.42 7.63c.23.03.45.04.68.04h1c.24 0 .46-.01.69-.04v.6l-1.22 1.25-1.15-1.11zm4.52-13.05a1.1 1.1 0 0 0-.86-.83 1.1 1.1 0 0 0-1.11.43c-2 2.74-6.43 2.77-6.49 2.77l-.11.01h-.04l-.07.01-.05.02-.06.01-.03.01v-.7a5.2 5.2 0 0 1 5.2-5.18h.53a5.2 5.2 0 0 1 5.21 5.18v.69l-.05-.01-.04-.01c-1.52-.35-2.02-2.38-2.03-2.4zm-2.83 10.89h-1a3.51 3.51 0 0 1-3.52-3.5v-2.89c1.43-.15 3.96-.65 5.91-2.27a4.96 4.96 0 0 0 2.12 2.02v3.14c0 1.93-1.57 3.5-3.51 3.5zM46.83 30.28v-3.91a6.24 6.24 0 0 0-3.95-6.04l-4.4-1.75v-.62a5.75 5.75 0 0 0 2.55-3.15 3.09 3.09 0 1 0 1.72-5.49V7.38A7.4 7.4 0 0 0 35.33 0h-.53a7.4 7.4 0 0 0-7.41 7.38v1.93a3.1 3.1 0 0 0 1.74 5.5 5.75 5.75 0 0 0 2.55 3.15v.61l-4.52 1.76a6.23 6.23 0 0 0-3.96 6.04v3.92c0 .61.5 1.1 1.1 1.1h2.82a1.1 1.1 0 1 0 0-2.2h-1.7v-2.82c0-3.05 2.39-3.93 2.48-3.96l.05-.02 4.14-1.62 2.2 2.14c.21.2.49.31.78.31h.01c.3-.01.58-.13.78-.34l2.08-2.14 4.14 1.64.05.02c.1.04 2.5.92 2.5 3.97v2.82h-14a1.1 1.1 0 1 0 0 2.2h15.1c.61 0 1.1-.5 1.1-1.11zM28.85 12.47a.9.9 0 0 1-.4-.75c0-.23.08-.43.22-.59l.18-.04zm12.46-1.4c.04.02.08.03.13.03a.91.91 0 0 1-.12 1.35zM33.9 18.7c.22.03.45.04.68.04h1c.23 0 .46-.01.68-.04v.6l-1.22 1.26-1.14-1.11zm4.52-13.04c-.1-.42-.43-.75-.86-.84-.43-.08-.86.09-1.12.44-1.99 2.73-6.43 2.76-6.48 2.76-.13 0-.25.03-.36.06v-.7a5.2 5.2 0 0 1 5.2-5.18h.53a5.2 5.2 0 0 1 5.2 5.18v.69l-.05-.01-.03-.01c-1.53-.34-2.03-2.38-2.03-2.39zm-2.84 10.88h-1a3.51 3.51 0 0 1-3.52-3.5v-2.88c1.43-.16 3.96-.66 5.92-2.28A4.9 4.9 0 0 0 39.1 9.9v3.14c0 1.93-1.58 3.5-3.52 3.5zm-20.3 35.64v-.61a5.75 5.75 0 0 0 2.55-3.15 3.09 3.09 0 1 0 1.72-5.49v-1.94a7.4 7.4 0 0 0-7.42-7.38h-.53a7.4 7.4 0 0 0-7.41 7.38v1.93a3.1 3.1 0 0 0 1.74 5.5 5.75 5.75 0 0 0 2.55 3.15v.61l-4.52 1.76A6.23 6.23 0 0 0 0 59.98v3.92c0 .6.5 1.1 1.1 1.1h2.82a1.1 1.1 0 1 0 0-2.2h-1.7v-2.82c0-3.05 2.38-3.93 2.48-3.97l.05-.01 4.14-1.62 2.2 2.13c.21.2.49.32.78.32h.01c.3-.01.58-.13.78-.34l2.08-2.15 4.14 1.65.05.02c.1.04 2.5.92 2.5 3.97v2.82h-14a1.1 1.1 0 1 0 0 2.2h15.1c.6 0 1.1-.5 1.1-1.11v-3.91a6.23 6.23 0 0 0-3.95-6.04zm-9.63-7.49v1.39a.9.9 0 0 1-.19-1.34l.19-.05zm12.46-.01l.12.03a.9.9 0 0 1-.12 1.34zm-7.41 7.63c.22.03.45.04.68.04h1c.23 0 .46-.01.68-.04v.6l-1.22 1.25-1.14-1.11zm4.52-13.05a1.1 1.1 0 0 0-.86-.83 1.1 1.1 0 0 0-1.12.43c-1.99 2.74-6.43 2.77-6.48 2.77l-.12.01h-.03l-.08.01-.05.02-.06.01-.02.01v-.7a5.2 5.2 0 0 1 5.2-5.18h.53a5.2 5.2 0 0 1 5.2 5.18v.69l-.05-.01-.03-.01c-1.53-.35-2.03-2.38-2.03-2.4zm-2.84 10.89h-1a3.51 3.51 0 0 1-3.52-3.5v-2.89c1.43-.15 3.96-.65 5.92-2.27a4.96 4.96 0 0 0 2.12 2.02v3.14c0 1.93-1.58 3.5-3.52 3.5zm11.8.51l9.13-5.24v-10.5a1.1 1.1 0 0 1 2.21 0v10.5l9.13 5.24a1.1 1.1 0 1 1-1.1 1.91l-9.14-5.25-9.13 5.25a1.1 1.1 0 0 1-1.51-.4 1.1 1.1 0 0 1 .4-1.51z"/>
		</symbol>
		
		<symbol id="edge-6" viewBox="0 0 70 64">
			<path d="M68.88 48.15h-.93l-2.04-7.49a1.12 1.12 0 0 0-1.08-.83h-.92l-.6-3.29a1.1 1.1 0 0 0-.48-.73c-2.68-7.46-2.63-12.53-2.46-14.47h1.44a2.57 2.57 0 0 0 2.57-2.56v-1.4a2.57 2.57 0 0 0-2.57-2.56h-.1A8.16 8.16 0 0 0 55.4 3.4V1.11a1.11 1.11 0 0 0-2.23 0V3.4a8.16 8.16 0 0 0-6.31 11.42h-.1a2.57 2.57 0 0 0-2.58 2.56v1.4a2.57 2.57 0 0 0 2.58 2.56h1.44c.18 1.93.24 6.96-2.46 14.47a1.1 1.1 0 0 0-.49.73l-.59 3.29h-.92c-.5 0-.95.34-1.08.83l-.25.93c-1.5-5.48-1.45-9.23-1.3-10.83h1.43a2.57 2.57 0 0 0 2.57-2.57V26.8a2.57 2.57 0 0 0-2.57-2.57h-.1a8.15 8.15 0 0 0-6.32-11.41v-2.29a1.1 1.1 0 0 0-2.23 0v2.29a8.15 8.15 0 0 0-6.31 11.41h-.1a2.57 2.57 0 0 0-2.57 2.57v1.39a2.57 2.57 0 0 0 2.57 2.57h1.44c.14 1.6.2 5.35-1.3 10.83l-.26-.93a1.12 1.12 0 0 0-1.08-.83h-.92l-.59-3.29a1.1 1.1 0 0 0-.49-.73c-2.68-7.46-2.62-12.53-2.46-14.47h1.44a2.57 2.57 0 0 0 2.58-2.56v-1.4a2.57 2.57 0 0 0-2.58-2.56h-.1A8.16 8.16 0 0 0 16.84 3.4V1.11a1.11 1.11 0 0 0-2.22 0V3.4a8.16 8.16 0 0 0-6.32 11.42h-.1a2.57 2.57 0 0 0-2.57 2.56v1.4a2.57 2.57 0 0 0 2.57 2.56h1.44c.18 1.93.24 6.96-2.46 14.47a1.1 1.1 0 0 0-.49.73l-.59 3.29h-.92c-.5 0-.95.34-1.08.83l-2.04 7.49h-.94c-.61 0-1.11.5-1.11 1.11v4.21c0 .62.5 1.11 1.11 1.11h21.03l-.8 2.99h-.95c-.61 0-1.11.5-1.11 1.11v4.21c0 .61.5 1.11 1.11 1.11H49.6c.62 0 1.12-.5 1.12-1.11v-4.21c0-.61-.5-1.11-1.12-1.11h-.93l-.81-2.99h21.02A1.1 1.1 0 0 0 70 53.47v-4.21c0-.61-.5-1.11-1.12-1.11zM46.4 18.78v-1.4c0-.19.16-.34.35-.34h9.51a1.1 1.1 0 1 0 0-2.22H49.4a5.93 5.93 0 1 1 9.47.4 1.12 1.12 0 0 0 .86 1.82h2.1c.18 0 .33.15.33.34v1.4c0 .19-.15.34-.34.34H46.75a.34.34 0 0 1-.35-.34zm4.03 2.56h7.7c-.18 2.24-.14 7.17 2.28 14.29H48.15c2.42-7.12 2.46-12.05 2.28-14.29zm-3.16 16.51H61.3l.35 1.98H46.92zm-3.56 7.41l.87-3.2h19.4l1.66 6.09h-21.2l-.4-2.19a1.11 1.11 0 0 0-.35-.63l.02-.07zM27.12 28.19V26.8c0-.19.16-.34.35-.34h9.51a1.12 1.12 0 0 0 0-2.23h-6.87A5.9 5.9 0 0 1 35 14.96a5.94 5.94 0 0 1 4.58 9.68 1.11 1.11 0 0 0 .86 1.82h2.1c.18 0 .34.15.34.34v1.39c0 .19-.16.34-.35.34H27.47a.34.34 0 0 1-.35-.34zm4.03 2.57h7.7c-.18 2.23-.14 7.16 2.28 14.28H28.87c2.42-7.12 2.46-12.05 2.28-14.28zm-3.16 16.5h14.02l.35 1.99H27.64zm15.7 4.21h1.01l1.66 6.1H23.64l1.66-6.1zM7.85 18.78v-1.4c0-.19.15-.34.34-.34h9.51a1.1 1.1 0 1 0 0-2.22h-6.86a5.93 5.93 0 1 1 9.46.4 1.12 1.12 0 0 0 .86 1.82h2.1c.18 0 .33.15.33.34v1.4c0 .19-.15.34-.34.34H8.2a.34.34 0 0 1-.35-.34zm4.02 2.56h7.7c-.18 2.24-.14 7.17 2.28 14.29H9.59c2.42-7.12 2.46-12.05 2.28-14.29zM8.7 37.85h14.02l.35 1.98H8.36zm-2.7 4.21h19.41l.88 3.22.01.05c-.18.16-.3.38-.35.63l-.4 2.19H4.37zm-3.78 10.3v-1.99h21.06l-.54 1.99zm46.26 7.43v1.99H21.51v-1.99h26.3zm-1.24-7.43l-.54-1.99h21.06v1.99z"/>
		</symbol>
		
		<symbol id="edge-5" viewBox="0 0 70 70">
			<path d="M70 68.81v-5.29a8.1 8.1 0 0 0-5.06-7.79l-3.68-1.54-2.48-1.63v-.61a7.34 7.34 0 0 0 3.68-5.1 3.57 3.57 0 0 0 2.01-5.9v-3.49a9.54 9.54 0 0 0-9.52-9.54h-.7a9.54 9.54 0 0 0-9.53 9.54v3.5a3.57 3.57 0 0 0 2.03 5.89 7.35 7.35 0 0 0 3.68 5.1v.54l-2.48 1.64a.38.38 0 0 0-.1.04l-3.74 1.56a8.1 8.1 0 0 0-5.06 7.79v5.3c0 .61.5 1.11 1.1 1.11h7.25a1.1 1.1 0 0 0 0-2.22h-1.07v-4.43a1.1 1.1 0 1 0-2.2 0v4.43h-2.88v-4.19a5.84 5.84 0 0 1 3.67-5.74l2.67-1.11 3.1 11.07a1.1 1.1 0 0 0 .24 2.18h1.2v0h4.96v0h11.8c.61 0 1.1-.5 1.1-1.11zM46.62 44.47a1.37 1.37 0 0 1 0-2.26zm15.97-2.26a1.37 1.37 0 0 1 0 2.26zm-5.52 19.62l.24-.62.29.21c.11.08.24.14.37.18l-.6 2.11zm-3.64 5.88l.79-4.89H55l.78 4.89zm-.79-14.98c.42.07.85.11 1.3.11h1.34c.44 0 .87-.04 1.3-.11v1.4l-2.02 2.09-1.92-1.88zm1.92 6.45l.9.66-.29.77h-1.16l-.33-.78zm-3.31 2.38c.1-.03.18-.08.26-.14l.34-.25.29.68-.3 1.83zm-.77-6.45c.05.18.14.35.29.48l2.12 2.07-1.62 1.2-1.57-3.24zm8.23-19.47a1.1 1.1 0 1 0-1.97-.41c-2.78 3.86-8.92 3.9-9 3.9h-.12l-.04.01-.07.01-.05.01-.06.02a.11.11 0 0 0-.05.02l-.05.01a3.1 3.1 0 0 0-.06.03l-.04.02-.05.03-.04.03-.05.03-.03.03-.05.04-.03.03-.02.02v-2.01a7.33 7.33 0 0 1 7.32-7.33h.7a7.33 7.33 0 0 1 7.32 7.33v2l-.03-.03-.04-.04-.04-.03-.05-.03-.04-.03a2.1 2.1 0 0 0-.05-.03l-.05-.03-.04-.02-.06-.02-.04-.02-.07-.02h-.03c-2.29-.53-3.01-3.5-3.02-3.52zm-3.43 14.99h-1.35a5.1 5.1 0 0 1-5.1-5.1v-4.25c1.87-.16 5.68-.81 8.43-3.32a6.36 6.36 0 0 0 3.12 3.07v4.5a5.1 5.1 0 0 1-5.1 5.1zm4.13 4.99l-1.57 3.24-.38-.28-1.23-.91 2.24-2.33c.07-.07.12-.15.17-.23zm8.38 12.09h-2.87v-4.43a1.1 1.1 0 1 0-2.2 0v4.43h-4.17l3.07-10.97 2.5 1.04.07.03c.15.05 3.6 1.31 3.6 5.71zM53.16 19.82V5.04c0-.61-.5-1.11-1.1-1.11h-9.17V1.11c0-.62-.5-1.11-1.1-1.11H17.83c-.6 0-1.1.49-1.1 1.11v14.77c0 .61.5 1.11 1.1 1.11h4.98v5.14a1.1 1.1 0 0 0 1.1 1.1c.32 0 .62-.13.84-.38l2.31-2.68c.15.44.56.75 1.04.75h11.96l5.07 5.86a1.1 1.1 0 0 0 1.22.32c.43-.16.72-.58.72-1.04v-5.14h4.98c.6 0 1.1-.49 1.1-1.1zm-2.2-1.11h-4.98c-.61 0-1.1.5-1.1 1.11v3.28l-3.47-4.01a1.11 1.11 0 0 0-.84-.38H29.22V6.14h5.87c.61 0 1.1-.49 1.1-1.1 0-.61-.49-1.11-1.1-1.11h-6.98c-.6 0-1.1.5-1.1 1.11v11.83l-1.99 2.29v-3.28c0-.61-.49-1.1-1.1-1.1h-4.97V2.21h21.73v1.72h-1.91c-.61 0-1.1.5-1.1 1.11 0 .61.49 1.1 1.1 1.1h12.18zm-35.4 8.66c-7.21 0-13.09 6.87-13.09 15.31 0 3.89 1.25 7.6 3.52 10.44l.02.03.03.03.08.08.03.02a1.03 1.03 0 0 0 .53.24l.02.01.15.01h.02l.13-.01.06-.01.14-.04.05-.02.06-.02a16.9 16.9 0 0 1 4.07-1.17v1.34l-2.41.58a.97.97 0 0 0-.17.05L5.06 55.8A8.1 8.1 0 0 0 0 63.6v5.29C0 69.5.5 70 1.1 70H29.84c.62 0 1.11-.51 1.11-1.12V63.6a8.1 8.1 0 0 0-5.06-7.8l-3.74-1.56a.85.85 0 0 0-.15-.05l-2.27-.57v-1.35c1.55.25 2.96.66 4.1 1.17a1.1 1.1 0 0 0 1.37-.4l.07-.09a16.79 16.79 0 0 0 3.38-10.27c0-8.44-5.87-15.31-13.09-15.31zm3.94 40.42l3.07-10.98 2.5 1.05.07.02c.15.05 3.6 1.32 3.6 5.72v4.19h-2.86v-4.43a1.1 1.1 0 1 0-2.21 0v4.43zm-7.88-8.23a11.38 11.38 0 0 0 7.9-.01l-2.31 8.24h-3.29zm0 8.23H7.29v-4.43a1.1 1.1 0 1 0-2.2 0v4.43H2.2V63.6c0-4.4 3.45-5.67 3.6-5.72l.07-.02 2.66-1.11.29 1.02v.01zm1.13-12.24c.5-.12.84-.56.84-1.07V52.8c.42.08.86.12 1.3.12h1.35c.44 0 .87-.04 1.28-.11v1.67c0 .51.35.95.84 1.07l2.12.54-.19.67a9.42 9.42 0 0 1-9.45.02l-.2-.72zM9.79 41.13a18.2 18.2 0 0 0 5.7-3.13c1 .96 2.88 2.4 5.85 3.19v4.41a5.11 5.11 0 0 1-5.1 5.11h-1.35a5.11 5.11 0 0 1-5.1-5.11zm16.66 1.55c0 3.09-.9 6.05-2.55 8.41-.67-.26-1.4-.48-2.17-.67a7.3 7.3 0 0 0 1.7-3.49 3.57 3.57 0 0 0 .04-7.03 1.1 1.1 0 0 0-.8-.67c-4.3-.88-6.14-3.34-6.2-3.44a1.1 1.1 0 0 0-1.7-.13c-2.46 2.54-6.32 3.57-6.36 3.58a1.1 1.1 0 0 0-.75.66 3.57 3.57 0 0 0 .04 7.03 7.3 7.3 0 0 0 1.7 3.49c-.78.19-1.5.41-2.17.66a14.66 14.66 0 0 1-2.55-8.4c0-7.22 4.88-13.1 10.88-13.1 6 0 10.89 5.88 10.89 13.1zm-19.47.73c0-.46.24-.88.6-1.13v2.27c-.36-.25-.6-.67-.6-1.14zm17.16 0c0 .47-.23.89-.6 1.14v-2.27c.37.25.6.67.6 1.13z"/>
		</symbol>
		
		<symbol id="edge-4" viewBox="0 0 70 70">
			<path d="M69.96 34.5v-5.18a3.02 3.02 0 0 0-3-3.03h-.11c-.53 0-1.02.14-1.45.38a2.98 2.98 0 0 0-2.34-1.15h-.12c-.5 0-.99.13-1.41.36a2.98 2.98 0 0 0-2.3-1.08h-.1c-.43 0-.83.09-1.2.25a3 3 0 0 0-2.5-1.37h-.12c-1.65 0-3 1.36-3 3.03v2.91c-1.2-.13-2.14.1-2.85.7-1.55 1.31-1.4 3.89-1.24 6.39.2 3.41 3.22 6.27 4.38 7.26v1.91h-.58c-.6 0-1.1.5-1.1 1.11v22.9c0 .61.5 1.11 1.1 1.11H68.3c.61 0 1.1-.5 1.1-1.11v-22.9c0-.61-.49-1.11-1.1-1.11h-.69v-3.04c2.72-2.77 2.41-7.72 2.36-8.34zM53.13 53.83h14.06v14.94H53.13zm0-5.72h14.06v3.5H53.13zm12.66-6.6c-.25.21-.4.52-.4.85v3.52H54.82v-2.45c0-.35-.17-.68-.45-.89-.03-.03-3.75-2.86-3.94-5.96-.1-1.77-.24-3.97.45-4.55.26-.22.76-.27 1.44-.16v1.51c0 .61.5 1.11 1.1 1.11.62 0 1.11-.5 1.11-1.11v-6.67c0-.44.35-.8.8-.8h.1c.44 0 .8.36.8.8V31c0 .62.5 1.12 1.1 1.12.61 0 1.1-.5 1.1-1.12v-3.56a.8.8 0 0 1 .7-.42h.12c.43 0 .79.36.79.8V31c0 .62.5 1.12 1.1 1.12.61 0 1.1-.5 1.1-1.12v-2.81c.14-.27.4-.44.71-.44h.12c.43 0 .79.36.79.8v3a1.1 1.1 0 1 0 2.2 0v-2.23c0-.44.36-.8.8-.8h.11c.44 0 .8.36.8.8v5.33c.12 1.33.02 5.16-1.97 6.86zm-9.4-23.29a2.92 2.92 0 0 0-1.54-3.84l-6-2.54.28-1.01v-.04a3 3 0 0 0-.36-2.28 3 3 0 0 0-1.85-1.36l-.12-.03a3 3 0 0 0-1.49.03 3.01 3.01 0 0 0-2.02-1.66l-.11-.03c-.5-.11-.99-.1-1.45.02a2.94 2.94 0 0 0-1.99-1.58l-.11-.03c-.4-.1-.82-.11-1.21-.04a2.99 2.99 0 0 0-2.13-1.91l-.11-.02a3 3 0 0 0-3.6 2.22l-.2.74-7.78-3.3a.15.15 0 0 0-.07-.02l-.04-.02-.06-.01-.05-.01-.05-.01-.07-.01h-.01L16.85 1a1.1 1.1 0 0 0-1.07.66c-.19.42-.1.92.23 1.25l5.2 5.11v.01l.02.01.06.06.04.03.04.02v.01l.06.04c.14.09.3.17.45.23l4.72 2.02a23.21 23.21 0 0 0-.75 3.36c-.6 3.49 1.87 7.11 2.7 8.21v5.06h-.92c-.6 0-1.1.49-1.1 1.11v41.7c0 .61.5 1.11 1.1 1.11H43.9c.6 0 1.1-.5 1.1-1.11V42.03c0-.61-.5-1.11-1.1-1.11-.61 0-1.1.5-1.1 1.11v26.74H28.73V35.03H42.8v3.09c0 .61.49 1.11 1.1 1.11.6 0 1.1-.5 1.1-1.11v-9.93c0-.62-.5-1.11-1.1-1.11h-.46V24.2c1.87-1.24 2.92-3.41 3.48-5.1l5.05 2.15a2.96 2.96 0 0 0 2.22.02c.73-.3 1.29-.86 1.6-1.58zM28.74 29.3H42.8v3.5H28.73zM22.48 3.6l-.82 1.75-1.97-1.94zm9.32 3.43l-.77 2.88-7.56-3.22 1.25-2.66zM47 10.26l-1.64 5.95-.03.15c0 .04-.7 4.78-3.48 6.21-.37.19-.6.57-.6.99l-.02 3.4H30.76v-5.33c0-.26-.1-.52-.26-.72-.03-.03-3-3.66-2.47-6.72.16-.96.35-2.03.61-2.87l2 .85a1.1 1.1 0 0 0 2.1-.1l1.97-7.38v-.04a.8.8 0 0 1 .96-.59l.11.03a.8.8 0 0 1 .59.96l-.11.48-1.3 4.54c-.17.59.16 1.21.75 1.38a1.1 1.1 0 0 0 1.37-.76l1.25-4.39c.2-.23.5-.34.79-.27l.11.03a.8.8 0 0 1 .59.95l-1.16 3.94a1.1 1.1 0 0 0 1.06 1.43c.48 0 .92-.31 1.06-.8l1.07-3.64c.19-.26.5-.38.82-.31l.11.03c.43.1.69.53.59.96l-.17.71-.94 3.02a1.12 1.12 0 0 0 1.05 1.45c.47 0 .9-.3 1.06-.78l.95-3.06v-.04l.02-.04c.1-.43.53-.69.95-.59l.11.03c.42.1.69.52.6.94zm3.74 4.8l-1.24 2.72-2.02-.86.03-.18.75-2.74zm3.62 2.3l-.61 1.46a.68.68 0 0 1-.38.38.67.67 0 0 1-.54 0l-1.3-.55 1.25-2.73 1.2.51a.71.71 0 0 1 .38.93zm-39.4 14.3h-.12c-.5 0-.98.13-1.4.35a3 3 0 0 0-2.3-1.07h-.12c-.41 0-.82.08-1.18.24a3 3 0 0 0-2.5-1.36h-.12c-1.66 0-3 1.36-3 3.03v2.91c-1.2-.13-2.15.1-2.86.7-1.54 1.3-1.39 3.89-1.24 6.39.2 3.41 3.22 6.27 4.39 7.26v1.91h-.58c-.61 0-1.1.5-1.1 1.11v16.76c0 .61.49 1.11 1.1 1.11H20.2c.6 0 1.1-.5 1.1-1.11V53.13c0-.61-.5-1.11-1.1-1.11h-.7v-3.04c2.72-2.77 2.42-7.72 2.36-8.34v-5.18a3.02 3.02 0 0 0-3-3.03h-.11c-.52 0-1.02.14-1.44.38a2.98 2.98 0 0 0-2.35-1.15zM5.03 59.97H19.1v8.8H5.03zm0-5.72H19.1v3.5H5.03zM16.85 38.8c.62 0 1.1-.5 1.1-1.11v-2.23c0-.44.36-.8.8-.8h.12c.43 0 .79.36.79.8v5.33c.13 1.33.02 5.16-1.97 6.86-.25.21-.39.52-.39.85v3.52H6.71v-2.45c0-.35-.16-.68-.44-.89-1.05-.78-3.79-3.38-3.94-5.97-.11-1.76-.24-3.96.45-4.54.25-.22.76-.27 1.44-.16v1.51c0 .61.5 1.11 1.1 1.11.61 0 1.1-.5 1.1-1.11v-6.67c0-.44.36-.8.8-.8h.11c.44 0 .8.36.8.8v4.29c0 .62.49 1.12 1.1 1.12.6 0 1.1-.5 1.1-1.12v-3.56a.8.8 0 0 1 .7-.42h.11c.44 0 .8.36.8.8v3.18c0 .62.49 1.12 1.1 1.12.6 0 1.1-.5 1.1-1.12v-2.82a.8.8 0 0 1 .7-.43h.12c.44 0 .8.36.8.8v3c0 .61.49 1.11 1.1 1.11z"/>
		</symbol>
		
		<symbol id="edge-3" viewBox="0 0 66 70">
			<path d="M65.2 62.42a1.18 1.18 0 0 1-1.62.42 1.17 1.17 0 0 1-.42-1.6 3.4 3.4 0 0 0 .48-1.72V10.5c0-4.5-3.7-8.17-8.25-8.17H10.61a8.22 8.22 0 0 0-8.25 8.16c0 2.9 1.58 5.61 4.12 7.06a1.17 1.17 0 1 1-1.18 2.02A10.51 10.51 0 0 1 0 10.52v-.06A10.57 10.57 0 0 1 10.6 0h44.8C61.23 0 66 4.71 66 10.5v49.02c0 1.01-.28 2.01-.8 2.9zM5.9 11.64c-.66 0-1.19-.52-1.19-1.16a5.87 5.87 0 0 1 5.9-5.84c.65 0 1.18.52 1.18 1.17V59.5c0 1.93 1.58 3.5 3.53 3.5h22.4c.65 0 1.17.52 1.17 1.16 0 .65-.52 1.17-1.18 1.17H15.32a5.87 5.87 0 0 1-5.9-5.83V7.17a3.52 3.52 0 0 0-2.35 3.31c0 .64-.53 1.16-1.18 1.16zM37.7 38.49c0-.65.53-1.17 1.18-1.17h11.79a1.17 1.17 0 1 1 0 2.34H38.89c-.65 0-1.18-.53-1.18-1.17zm6.37 21.36a1.18 1.18 0 0 1 1.6-.42c.57.32.76 1.03.44 1.59l-2.58 4.43.73.04c.37.02.7.21.9.52l.41.6 2.54-4.35a1.19 1.19 0 0 1 1.61-.43c.56.32.76 1.04.43 1.6l-3.49 5.98c-.2.36-.58.58-.98.59h-.04c-.4 0-.77-.2-.98-.53l-1.13-1.69-2.04-.12a1.16 1.16 0 0 1-.95-1.75zm12.5-28.37c0 .65-.53 1.17-1.19 1.17h-7.07c-.65 0-1.18-.52-1.18-1.17 0-.64.53-1.16 1.18-1.16h7.07c.66 0 1.18.52 1.18 1.16zm-11.8 0c0 .65-.52 1.17-1.17 1.17H31.82c-.65 0-1.18-.52-1.18-1.17 0-.64.53-1.16 1.18-1.16h11.79c.65 0 1.18.52 1.18 1.16zM29.47 16.31h9.43c.65 0 1.18.53 1.18 1.17 0 .64-.53 1.17-1.18 1.17h-9.43c-.65 0-1.17-.53-1.17-1.17 0-.64.52-1.17 1.17-1.17zm-9.42 2.34c-.66 0-1.18-.53-1.18-1.17 0-.64.52-1.17 1.18-1.17h4.71c.65 0 1.18.53 1.18 1.17 0 .64-.53 1.17-1.18 1.17zm17.67 5.83c0 .65-.52 1.17-1.17 1.17h-16.5a1.17 1.17 0 1 1 0-2.34h16.5c.65 0 1.17.53 1.17 1.17zm-17.67 8.17c-.66 0-1.18-.52-1.18-1.17 0-.64.52-1.16 1.18-1.16h7.07c.65 0 1.18.52 1.18 1.16 0 .65-.53 1.17-1.18 1.17zm15.32 5.84c0 .64-.53 1.17-1.18 1.17H20.04a1.17 1.17 0 0 1 0-2.34h14.14c.65 0 1.18.52 1.18 1.17zM21.74 54.7c-.58.29-1.29.06-1.58-.52-1.56-3.08-1.78-5.93-.6-7.82a4.52 4.52 0 0 1 4.01-2.04c1.55 0 2.4.75 2.84 1.39 1.01 1.44.9 3.76.51 5.77.99-.59 1.4-.42 1.7-.29.47.19.77.61.83 1.12a4.55 4.55 0 0 1 2.37-.98c.61 0 1.14.27 1.44.75.28.46.3 1.02.2 1.58h3.08c.65 0 1.17.52 1.17 1.17 0 .64-.52 1.16-1.17 1.16h-4.72c-.4 0-.78-.21-1-.55a1.15 1.15 0 0 1-.05-1.13c0-.03.02-.06.04-.09-.53.38-1.15.9-1.7 1.43-.33.34-.83.44-1.28.25-.44-.18-.72-.6-.72-1.07v-.57c-.48.4-1.02.89-1.53 1.39-.39.39-1 .45-1.47.16-.46-.3-.66-.88-.46-1.39.87-2.31 1.7-6.13.83-7.38-.14-.19-.35-.38-.9-.38-.95 0-1.63.31-2.01.93-.73 1.16-.47 3.24.7 5.55.29.57.05 1.28-.53 1.56zm21.87-36.05c-.65 0-1.18-.53-1.18-1.17 0-.64.53-1.17 1.18-1.17h2.35c.66 0 1.18.53 1.18 1.17 0 .64-.52 1.17-1.18 1.17zm10.6 5.83c0 .65-.52 1.17-1.17 1.17H41.25a1.17 1.17 0 1 1 0-2.34h11.79c.65 0 1.17.53 1.17 1.17zM44.8 53.66c0-3.86 3.17-7 7.07-7 3.9 0 7.07 3.14 7.07 7s-3.17 7-7.07 7a7.04 7.04 0 0 1-7.07-7zm7.07 4.67a4.7 4.7 0 0 0 4.71-4.67 4.7 4.7 0 0 0-4.71-4.67 4.7 4.7 0 0 0-4.72 4.67 4.7 4.7 0 0 0 4.72 4.67zm1.7 5.12l3.48 5.97c.21.35.58.57.99.58h.04c.4 0 .76-.2.98-.53l1.13-1.68 2.04-.13a1.17 1.17 0 0 0 .95-1.75l-3.5-6a1.19 1.19 0 0 0-1.61-.43 1.17 1.17 0 0 0-.43 1.6l2.54 4.37-.72.04c-.37.02-.71.22-.92.52l-.4.6-2.52-4.33a1.19 1.19 0 0 0-1.61-.43 1.17 1.17 0 0 0-.43 1.6z"/>
		</symbol>

		<symbol id="edge-2" viewBox="0 0 70 62">
			<path d="M70.96 48.52a1.12 1.12 0 0 0-.51-.68l-7.68-4.5a1.1 1.1 0 0 0-1.51.42l-.21.36-2.32-1.36c-.7-3.07-5.51-5.9-6.56-6.49l-4.14-2.42a2.76 2.76 0 0 0-3.8 1.03l-.02.06c-.1.16-.18.34-.23.51l-1.11-.64c-.46-.27-.98-.4-1.5-.38a2.8 2.8 0 0 0 1.67-2.58v-5.54c.57.53 1.24.97 1.99 1.14.21.04.42.07.63.07a3.13 3.13 0 0 0 2-.77c.1-.08 2.11-1.9-.5-5.52A6.17 6.17 0 0 1 46 18.28c-.28-1.55-.56-3.15-3.42-5.47v-1.58h.2c.62 0 1.11-.5 1.11-1.12V4.74c0-.62-.5-1.12-1.1-1.12-.62 0-1.11.5-1.11 1.12v4.25H30.2V2.25H42.8c.6 0 1.1-.51 1.1-1.13C43.9.5 43.4 0 42.8 0h-13.7c-.6 0-1.1.5-1.1 1.12v8.99c0 .62.5 1.12 1.1 1.12h.43v2.72c-2.28 2.14-2.3 7.79-2.27 9.01v4.84a2.8 2.8 0 0 0 2.78 2.82h.06c.2 0 .38-.02.56-.06v1.29c0 .53.15 1.02.4 1.45a2.74 2.74 0 0 0-2.83-.04l-.05.04-4.68 2.73c.17-.76.21-1.57-.02-2.31a3.05 3.05 0 0 0-1.9-1.95l-.02-.01c-.1-.04-2.67-.91-4.46 3.19-.58 1.33-1.2 1.87-1.94 2.5-1.18 1.02-2.4 2.07-2.96 5.74l-1.34.79-.1-.18a1.1 1.1 0 0 0-1.52-.41l-4.59 2.68c-.53.31-.7 1-.4 1.54.3.53.98.72 1.51.41l3.63-2.13 5.73 10.08-5.75 3.37-6.3-11.05a1.1 1.1 0 0 0-1.5-.41c-.54.31-.72 1-.41 1.53l6.84 12.03a1.1 1.1 0 0 0 1.52.41l7.67-4.5c.53-.31.71-.99.4-1.53l-.2-.37 2.32-1.36c2.96.93 7.8-1.88 8.82-2.51l4.14-2.43a2.83 2.83 0 0 0 1.02-3.84l-.04-.06c-.1-.16-.2-.32-.33-.46l1.11-.64c.36-.21.65-.49.87-.81a2.8 2.8 0 0 0 1.38 2.35l.06.03v.01l4.68 2.73c-.74.24-1.45.61-1.96 1.18a3.11 3.11 0 0 0-.73 2.64v.03c.02.1.48 2.37 3.96 2.37.31 0 .64-.02 1-.06a6 6 0 0 1 3.1.46c1.47.53 2.98 1.08 6.4-.27l1.34.78-.1.19c-.31.53-.13 1.22.4 1.53L59.4 60c.53.31 1.21.12 1.52-.41.3-.54.12-1.23-.4-1.54l-3.64-2.12 5.53-9.71.21-.37 5.76 3.37-6.3 11.05c-.3.54-.12 1.23.41 1.54.18.1.37.15.56.15.38 0 .75-.21.96-.56l6.84-12.03c.15-.26.19-.56.11-.85zM30.65 23.69v4.11c0 .32-.25.57-.56.57h-.06a.56.56 0 0 1-.56-.57v-4.85-.03c-.05-2.55.46-6.69 1.72-7.45.34-.2.54-.57.54-.97v-3.27h8.63v2.13c0 .35.17.68.44.89 2.58 1.99 2.78 3.07 3.02 4.43.19 1.02.42 2.29 1.56 3.88 1.02 1.42.99 2.24.81 2.5-.3.23-.52.23-.7.19-.99-.22-2.16-1.99-2.57-2.81a1.1 1.1 0 0 0-1.48-.5c-.41.21-.64.64-.61 1.08v8.83c0 .32-.25.57-.56.57h-.07a.56.56 0 0 1-.56-.57v-.03V23.69c0-.62-.5-1.12-1.1-1.12-.62 0-1.11.5-1.11 1.12V33.5c0 .31-.25.57-.56.57h-.07a.57.57 0 0 1-.55-.57v-1.36l.01-.29v-2.09l-.01-.17v-5.9c0-.62-.5-1.12-1.11-1.12-.61 0-1.1.5-1.1 1.12v8.29a.56.56 0 0 1-.55.44h-.07a.56.56 0 0 1-.55-.57v-8.16c0-.62-.5-1.12-1.11-1.12-.61 0-1.11.5-1.11 1.12zm2.92 18.17a.56.56 0 0 1-.26.34l-3 1.76-.46.26v.01l-3.5 2.05c-.54.31-.72 1-.41 1.54a1.1 1.1 0 0 0 1.51.41l3.52-2.06c.26-.15.6-.06.75.21l.04.06c.15.27.06.61-.2.77l-4.16 2.43-.02.01c-1.7 1.04-4.4 2.27-6.1 2.39l-.04-.02-.02-.02-.04-.01a.89.89 0 0 0-.66.01 1.3 1.3 0 0 1-.36-.14 1.1 1.1 0 0 0-1.1.01l-2.79 1.64-4.32-7.58 1.82-1.06c.3-.18.5-.49.54-.84.4-3.26 1.23-3.97 2.27-4.87.78-.67 1.75-1.5 2.54-3.3.7-1.61 1.42-1.99 1.73-1.97.35.16.45.35.5.52.32.98-.6 2.89-1.1 3.66-.34.52-.2 1.22.31 1.56.39.26.87.24 1.23-.01l.04-.02 3.35-1.96 4.15-2.43c.27-.16.61-.06.76.21l.04.06c.1.17.08.34.05.42a.58.58 0 0 1-.26.35l-.03.02-.03.01-6.9 4.05c-.54.31-.72.99-.41 1.53a1.1 1.1 0 0 0 1.51.41l6.91-4.04.03-.02.03-.02 1.4-.82c.27-.16.62-.06.77.2l.03.06c.1.18.08.35.06.43a.58.58 0 0 1-.26.35l-1.16.67-.26.14-1.78 1.04-.14.1-5.04 2.95c-.53.31-.7 1-.4 1.53a1.1 1.1 0 0 0 1.51.42l5.59-3.27.14-.1.16-.08 1.19-.7a.52.52 0 0 1 .3 0c.09.02.24.08.34.26l.04.06c.1.18.07.34.05.43zM36 37.98l-.04.06a2.86 2.86 0 0 0 .22 3.14c-.14.13-.26.27-.37.43a2.88 2.88 0 0 0-.36-1.31l-.04-.05a2.6 2.6 0 0 0-.46-.6 2.85 2.85 0 0 0 .21-3.14l-.03-.06a2.77 2.77 0 0 0-2.78-1.38 2.9 2.9 0 0 0-.3-.72l-.03-.06-.02-.03c.42.25.9.41 1.43.41h.07c.26 0 .5-.04.75-.11a2.77 2.77 0 0 0 2.56 1.75h.07c1.16 0 2.16-.72 2.57-1.75.24.07.5.11.76.11h.07l.13-.01c-.55.24-1.01.64-1.32 1.18l-.03.06c-.13.22-.22.46-.28.7a2.77 2.77 0 0 0-2.78 1.38zm19.8 15.36l-.91-.53a.87.87 0 0 0-.78-.06l-.29-.16a1.1 1.1 0 0 0-.98-.07c-1.74.75-2.82.93-3.66.86l-.48-.16-.06-.02-.24-.09-.03-.01-.26-.09-.02-.01c-.43-.14-.9-.27-1.47-.35-.8-.23-1.8-.41-3.16-.26-1.74.19-2.42-.25-2.55-.54-.04-.38.07-.57.19-.7.68-.77 2.78-.91 3.68-.86.61.04 1.14-.44 1.17-1.05a1.13 1.13 0 0 0-.66-1.1l-3.35-1.97-4.15-2.43a.57.57 0 0 1-.2-.77l.03-.06c.1-.17.26-.24.34-.26a.53.53 0 0 1 .42.06l.04.01.02.02 6.91 4.05a1.1 1.1 0 0 0 1.51-.41c.31-.54.13-1.23-.4-1.54l-6.9-4.04-.04-.02-.03-.02-1.4-.82a.57.57 0 0 1-.21-.77l.03-.06c.1-.18.26-.24.34-.27a.57.57 0 0 1 .42.06l1.17.68.23.16 1.8 1.04.15.08 5.03 2.94a1.1 1.1 0 0 0 1.51-.41c.3-.53.13-1.22-.4-1.53l-5.59-3.27-.15-.08-.15-.1-1.19-.7a.58.58 0 0 1-.16-.26.57.57 0 0 1 .06-.43l.03-.06c.1-.18.26-.24.34-.26a.51.51 0 0 1 .42.05l3.46 2.03 3.51 2.05c.18.11.37.16.55.16a1.13 1.13 0 0 0 .56-2.1l-3.51-2.06a.56.56 0 0 1-.2-.77l.03-.06c.15-.27.5-.36.76-.2l4.15 2.43.02.01c2.2 1.23 5.49 3.74 5.5 5.23 0 .4.22.76.56.96l2.79 1.64z"/>
		</symbol>

		<symbol id="edge-1" viewBox="0 0 70 70">
			<path d="M62.2 58.84l-1.16-.46A34.84 34.84 0 0 0 70 35 34.94 34.94 0 0 0 57.67 8.33a1.1 1.1 0 1 0-1.44 1.68 33.15 33.15 0 0 1 5 5.32 48.1 48.1 0 0 1-8.28 2.3 39.46 39.46 0 0 0-3.18-7.15 25.36 25.36 0 0 0-5.73-7.01c3.28.94 6.42 2.4 9.3 4.34a1.1 1.1 0 1 0 1.23-1.83A34.83 34.83 0 0 0 35 0a34.77 34.77 0 0 0-24.75 10.25A34.77 34.77 0 0 0 0 35c0 8.69 3.18 16.96 8.97 23.4l-1.13.44a6.28 6.28 0 0 0-3.98 6.09v3.96c0 .61.5 1.11 1.1 1.11h16.28l.15-.01.16.01h4.5c.6 0 1.1-.5 1.1-1.11 0-.61-.5-1.1-1.1-1.1h-3.4v-3.85c0-4.06 3.2-5.23 3.32-5.28l.05-.01 5.39-2.11.03.04 2.86 2.78c.2.2.48.32.77.32h.02c.3-.01.57-.13.78-.34l2.74-2.85L44 58.64l.05.02c.14.05 3.33 1.22 3.33 5.28v3.85H29.5c-.61 0-1.1.49-1.1 1.1 0 .61.49 1.11 1.1 1.11h35.56c.6 0 1.1-.5 1.1-1.11v-3.96c0-4.5-3.53-5.93-3.97-6.09zm-3.35-1.34l-1.1-.44v-.62a5.8 5.8 0 0 0 2.58-3.19 3.13 3.13 0 0 0 1.72-5.54v-1.96a7.46 7.46 0 0 0-6.5-7.39c.04-.75.07-1.5.08-2.26h12.14c-.27 8-3.4 15.56-8.92 21.4zm-4-2.49h-1a3.55 3.55 0 0 1-3.54-3.54v-2.92c1.44-.16 3.99-.66 5.95-2.3a4.94 4.94 0 0 0 2.14 2.04v3.18a3.55 3.55 0 0 1-3.54 3.54zm.7 2.17v.61l-1.23 1.28-1.16-1.13v-.76c.22.03.46.04.69.04h1c.24 0 .47-.01.7-.04zM49.2 46.41h-.12l-.04.01-.07.01-.05.01-.06.02-.03.01v-.72a5.24 5.24 0 0 1 5.24-5.24h.52a5.24 5.24 0 0 1 5.24 5.24v.71l-.06-.01-.03-.01c-1.54-.35-2.05-2.41-2.05-2.43-.1-.42-.43-.75-.86-.84-.42-.08-.86.09-1.11.44-2 2.77-6.47 2.8-6.52 2.8zm11.4 4.47v-1.49a.9.9 0 0 1 0 1.49zm1.92-33.69a32.74 32.74 0 0 1 5.24 16.7H55.63a55.8 55.8 0 0 0-2.02-14.14c3.4-.68 6.43-1.54 8.92-2.56zm-9.1 16.7H42.1a9.08 9.08 0 0 0-6-2.95v-9.5c5.42-.06 10.65-.51 15.32-1.29a53.4 53.4 0 0 1 2 13.74zm-9.76 11.55c0 .65-.44 1.19-1.03 1.36v-2.73c.6.17 1.03.72 1.03 1.37zm4.19-33.86a36.89 36.89 0 0 1 2.9 6.45c-4.46.72-9.46 1.14-14.65 1.2V2.27c4.4.47 8.53 3.73 11.75 9.31zm-5.63 28.37v1.35l-.02-.02a2.1 2.1 0 0 0-.09-.06l-.05-.03-.05-.02-.05-.03-.05-.02-.05-.01a.18.18 0 0 0-.06-.02l-.03-.01c-2.1-.48-2.77-3.22-2.77-3.24-.1-.42-.44-.75-.86-.84-.43-.09-.86.08-1.12.44-2.59 3.57-8.3 3.61-8.38 3.61l-.12.01h-.03l-.08.01-.04.01-.06.02-.05.02-.05.02-.06.03-.04.01-.06.04-.03.02a.18.18 0 0 0-.05.04l-.04.02-.03.03v-1.38a6.84 6.84 0 0 1 6.83-6.83h.66a6.84 6.84 0 0 1 6.83 6.83zm-23.66-19.8c4.67.78 9.91 1.23 15.33 1.29v9.51a9.02 9.02 0 0 0-5.86 2.95l-.13-.01H16.58c.09-4.85.77-9.52 2-13.74zm8.97 23.91v2.75a1.42 1.42 0 0 1 0-2.75zM33.9 2.27v16.96a99.11 99.11 0 0 1-14.64-1.21 37.2 37.2 0 0 1 2.9-6.44C25.34 6 29.5 2.74 33.88 2.27zm-7.94 1.21a25.31 25.31 0 0 0-5.72 7 39.45 39.45 0 0 0-3.18 7.15 47.9 47.9 0 0 1-8.27-2.3A32.87 32.87 0 0 1 25.95 3.48zM7.48 17.2a50.57 50.57 0 0 0 8.91 2.55 55.75 55.75 0 0 0-2.02 14.14H2.23c.2-6.14 2.1-11.85 5.25-16.69zm7.12 39.98c.23.03.46.04.69.04h1c.24 0 .47-.01.7-.04v.61l-1.23 1.28-1.16-1.13zm1.7-2.17h-1.01a3.55 3.55 0 0 1-3.54-3.54v-2.92c1.44-.16 3.99-.66 5.95-2.3a5.02 5.02 0 0 0 2.14 2.05v3.17a3.55 3.55 0 0 1-3.54 3.54zm2.84-11c-.1-.42-.43-.75-.86-.84-.42-.08-.86.09-1.11.44-2 2.77-6.47 2.8-6.52 2.8h-.12l-.03.01-.08.01-.05.01-.05.02-.04.01v-.72a5.24 5.24 0 0 1 5.24-5.24h.53a5.24 5.24 0 0 1 5.23 5.24v.71a.16.16 0 0 1-.06-.02h-.03c-1.54-.35-2.04-2.41-2.05-2.43zM2.24 36.1h12.13c.01.77.04 1.53.08 2.28a7.46 7.46 0 0 0-6.38 7.37v1.96a3.12 3.12 0 0 0 1.75 5.54 5.8 5.8 0 0 0 2.57 3.19v.62l-1.2.47A32.61 32.61 0 0 1 2.22 36.1zm7.3 13.27v1.54a.93.93 0 0 1-.42-.77.9.9 0 0 1 .42-.77zm10.9 14.57v3.85H6.07v-2.86c0-3.08 2.41-3.97 2.5-4.01l.06-.01 4.16-1.64 2.22 2.16c.2.2.48.31.77.31h.02c.3 0 .57-.12.78-.33l2.09-2.18 2.58 1.04c-.49 1-.8 2.22-.8 3.67zm10.67-9.66l-5.87 2.3c-.75.26-1.78.85-2.7 1.83l-3.34-1.35v-.62a5.79 5.79 0 0 0 2.57-3.19 3.13 3.13 0 0 0 1.72-5.54v-1.96c0-3.9-3-7.1-6.83-7.42-.04-.74-.07-1.48-.08-2.23h9.99a9.02 9.02 0 0 0-.86 3.85v2.58a3.63 3.63 0 0 0 2.12 6.54 6.93 6.93 0 0 0 3.28 4.08v1.13zm-9.06-3.4v-1.49a.9.9 0 0 1 0 1.49zm14.8 4.24L35.06 57l-1.73-1.68v-1.39c.37.06.75.09 1.14.09h1.26c.39 0 .77-.03 1.14-.09zm-1.13-3.31h-1.26a4.7 4.7 0 0 1-4.7-4.7V43.2c1.76-.16 5.24-.77 7.8-3.06a6 6 0 0 0 2.87 2.81v4.16a4.7 4.7 0 0 1-4.71 4.7zm11.77 6.6a7.06 7.06 0 0 0-2.7-1.83l-5.72-2.29v-1.14a6.92 6.92 0 0 0 3.28-4.09 3.63 3.63 0 0 0 2.1-6.52v-2.59c0-1.37-.32-2.68-.87-3.85h9.84c-.01.75-.04 1.5-.09 2.24a7.45 7.45 0 0 0-6.7 7.41v1.96a3.11 3.11 0 0 0 1.75 5.54 5.8 5.8 0 0 0 2.57 3.19v.62zm.6-9.04v1.54a.93.93 0 0 1-.41-.77.9.9 0 0 1 .42-.77zm1.49 18.42v-3.85c0-1.44-.32-2.66-.8-3.66l2.58-1.01 2.21 2.16c.2.2.48.31.77.31h.02c.3 0 .57-.12.78-.33l2.09-2.18 4.16 1.67.05.02c.1.04 2.51.93 2.51 4.01v2.86z"/>
		</symbol>

		<symbol id="slider-prev" viewBox="0 0 19 36">
			<path d="M17.97 0L19 1.02 3.11 18 19 34.97 17.97 36 0 18z"/>
		</symbol>

		<symbol id="slider-next" viewBox="0 0 19 36">
			<path d="M1.03 0L0 1.02 15.89 18 0 34.97 1.03 36 19 18z"/>
		</symbol>
		
		<symbol id="facebook" viewBox="0 0 30 30" >
			<path d="M15 0C6.73 0 0 6.73 0 15s6.73 15 15 15 15-6.73 15-15S23.27 0 15 0zm3.73 15.53h-2.44v8.7h-3.62v-8.7h-1.71v-3.08h1.71v-1.98c0-1.43.68-3.65 3.65-3.65H19v3h-1.94c-.32 0-.77.15-.77.83v1.8h2.75z"/>
		</symbol>

		<symbol id="vk" viewBox="0 0 31 31">
			<path d="M15.5 0a15.5 15.5 0 1 0 0 31 15.5 15.5 0 0 0 0-31zm7.86 17.18c.72.7 1.49 1.37 2.14 2.15.28.34.56.7.76 1.1.3.57.03 1.2-.48 1.23H22.6a2.45 2.45 0 0 1-2.02-.83c-.44-.44-.85-.92-1.27-1.38a2.77 2.77 0 0 0-.57-.51c-.43-.28-.81-.2-1.06.25a3.3 3.3 0 0 0-.33 1.49c-.04.75-.26.94-1.01.98a8.16 8.16 0 0 1-4.55-.98 10.12 10.12 0 0 1-3.06-2.86 38.67 38.67 0 0 1-4.02-7.18c-.25-.56-.07-.87.56-.88 1.03-.02 2.07-.02 3.1 0 .43 0 .71.25.87.65a19.31 19.31 0 0 0 2.1 3.9c.23.32.47.65.8.88.37.25.65.17.82-.25.11-.26.16-.54.19-.81.08-.96.09-1.92-.05-2.88-.09-.6-.43-.98-1.02-1.09-.31-.06-.26-.17-.12-.34.26-.3.5-.49.98-.49h3.59c.56.11.69.37.77.94v3.98c-.01.22.11.88.5 1.02.32.1.53-.15.72-.35.86-.91 1.47-1.99 2.02-3.1.25-.5.45-1 .66-1.52.15-.37.38-.56.81-.55h3.45c.11 0 .21 0 .31.02.58.1.74.35.56.92-.28.9-.83 1.63-1.37 2.38-.58.8-1.19 1.57-1.77 2.37-.52.73-.48 1.1.17 1.74z"/>
		</symbol>

		<symbol id="youtube" viewBox="0 0 30 30">
			<path d="M15 30a15 15 0 1 1 0-30 15 15 0 0 1 0 30zM11.65 5.09l-.77 2.97-.8-2.97h-1.2l.73 2.1c.36 1.06.59 1.86.69 2.4v3.07h1.14V9.59l1.36-4.5zm4.18 3.77c0-.6-.11-1.05-.32-1.33a1.39 1.39 0 0 0-1.19-.58c-.51 0-.91.2-1.19.58-.22.28-.32.72-.32 1.33v1.97c0 .6.1 1.04.32 1.33.28.38.68.57 1.19.57.51 0 .91-.19 1.19-.57.21-.28.32-.73.32-1.33zm3.78-1.84h-1.02v4.3c-.23.33-.45.49-.65.49-.14 0-.22-.08-.24-.24l-.01-.4V7.02h-1.02v4.46c0 .4.03.66.09.83.1.3.33.42.66.42.37 0 .76-.22 1.17-.69v.62h1.02zm3.47 8.1a2.12 2.12 0 0 0-1.81-1.64c-2.08-.23-4.18-.23-6.27-.23s-4.19 0-6.26.23a2.1 2.1 0 0 0-1.81 1.64c-.29 1.27-.3 2.65-.3 3.96 0 1.3 0 2.69.29 3.96.21.89.94 1.54 1.81 1.64 2.08.23 4.18.23 6.27.23s4.19 0 6.27-.23a2.1 2.1 0 0 0 1.8-1.64c.3-1.27.3-2.66.3-3.96 0-1.3 0-2.69-.29-3.95zm-1.22 6.9c-.28.4-.69.6-1.22.6s-.93-.19-1.22-.57c-.22-.28-.33-.72-.33-1.31v-1.96c0-.6.1-1.03.31-1.31.3-.39.7-.58 1.21-.58s.91.2 1.2.58c.21.28.31.72.31 1.31v1.16H20.1v.99c0 .51.17.77.51.77.25 0 .4-.13.46-.4.01-.06.02-.28.02-.69h1.03v.15l-.02.65c-.03.22-.11.43-.24.6zM20.1 19.1h1.01v-.52c0-.52-.17-.78-.5-.78-.34 0-.51.26-.51.78zm-2.71 3.52c-.36 0-.7-.2-1.04-.62v.54h-1.01v-7.49h1.01v2.45c.32-.4.67-.6 1.04-.6.41 0 .68.2.81.62.07.23.1.6.1 1.13v2.22c0 .51-.03.89-.1 1.12-.13.42-.4.63-.81.63zm-.1-4.05c0-.5-.15-.77-.44-.77-.16 0-.33.08-.5.25v3.4c.17.17.34.25.5.25.29 0 .44-.25.44-.75zm-3.84 3.36c-.4.47-.78.69-1.16.69-.32 0-.55-.13-.65-.42a3.04 3.04 0 0 1-.09-.82v-4.42h1.01v4.11l.01.4c.03.15.11.23.24.23.2 0 .42-.16.64-.47v-4.27h1.01v5.58h-1.01zm-3.26.61H9.07v-6.43H7.88v-1.06h3.53v1.06h-1.22zm4.62-11.52V8.65c0-.52-.16-.78-.49-.78-.33 0-.49.26-.49.78v2.37c0 .53.16.79.49.79.33 0 .49-.26.49-.79z"/>
		</symbol>

		<symbol id="facts-1" viewBox="0 0 21 18">
			<path d="M20.72 17.82a.72.72 0 0 1-.64.16c-1.8-.44-4.96-.94-7.95-.17 1.73-1.73 4.17-2.04 5.66-2.04 1.05 0 1.91-.92 1.91-2.03V3.75h.55c.41 0 .75.36.75.8V17.2c0 .25-.1.47-.28.62zm-2.94-3.29c-1.75 0-4.67.4-6.7 2.63V4.66a.8.8 0 0 1 .1-.4C12.86 1.43 16.04 1 17.79 1c.2 0 .4.08.54.23.14.15.22.35.22.56v11.94c0 .44-.34.8-.75.8zm-14.56 0a.78.78 0 0 1-.76-.8V1.8c0-.22.08-.42.22-.57A.72.72 0 0 1 3.21 1c1.76 0 4.94.43 6.6 3.26.07.12.1.26.1.4v12.5c-2.01-2.24-4.95-2.62-6.7-2.63zm0 1.24c-1.06 0-1.92-.92-1.92-2.03V3.75H.75a.77.77 0 0 0-.75.8V17.2c0 .25.1.47.28.62.18.16.41.21.64.16 1.8-.44 4.96-.94 7.96-.16-1.74-1.74-4.18-2.05-5.67-2.05z"/>
		</symbol>

		<symbol id="facts-2" viewBox="0 0 24 17">
			<path d="M11.51 11.55L.01 6.02v-.51L11.5 0 23 5.52v.5zm7.5-2.6l.01 3.27-.02.04-6.9 3.3h-1.17L4 12.25v-3.3l7.51 3.61zM20.9 14l-.59 1.8.9 1.2h.3l.9-1.2-.6-1.8V7.6l-.91.45z"/>
		</symbol>
	</defs>
</svg>
